<?xml version="1.0" encoding="UTF-8"?>
<!DOCTYPE svg PUBLIC "-//W3C//DTD SVG 1.1//EN" "http://www.w3.org/Graphics/SVG/1.1/DTD/svg11.dtd">
<!-- Creator: CorelDRAW X8 -->
<svg xmlns="http://www.w3.org/2000/svg" xml:space="preserve" width="210mm" height="297mm" version="1.1" style="shape-rendering:geometricPrecision; text-rendering:geometricPrecision; image-rendering:optimizeQuality; fill-rule:evenodd; clip-rule:evenodd"
viewBox="0 0 21000 29700"
 xmlns:xlink="http://www.w3.org/1999/xlink">
 <defs>
  <style type="text/css">
   <![CDATA[
    .fil0 {fill:#FEFEFE}
    .fil7 {fill:url(#id4)}
    .fil3 {fill:url(#id5)}
    .fil6 {fill:url(#id6)}
    .fil8 {fill:url(#id7)}
    .fil5 {fill:url(#id8)}
    .fil4 {fill:url(#id9)}
    .fil2 {fill:url(#id10)}
    .fil1 {fill:url(#id11)}
   ]]>
  </style>
   <clipPath id="id0">
    <rect x="5992" y="12650" width="3125" height="3135"/>
   </clipPath>
   <clipPath id="id1">
    <rect x="5417" y="16571" width="10131" height="1066"/>
   </clipPath>
   <clipPath id="id2">
    <rect x="9167" y="12677" width="5875" height="1728"/>
   </clipPath>
   <clipPath id="id3">
    <rect x="9186" y="14449" width="5826" height="991"/>
   </clipPath>
  <linearGradient id="id4" gradientUnits="userSpaceOnUse" x1="9299.92" y1="11458.3" x2="14777.1" y2="14634.7">
   <stop offset="0" style="stop-opacity:1; stop-color:#B36D15"/>
   <stop offset="0.368627" style="stop-opacity:1; stop-color:#F6F181"/>
   <stop offset="0.490196" style="stop-opacity:1; stop-color:#FFFCDB"/>
   <stop offset="0.588235" style="stop-opacity:1; stop-color:#F6F181"/>
   <stop offset="1" style="stop-opacity:1; stop-color:#B67A17"/>
  </linearGradient>
  <linearGradient id="id5" gradientUnits="userSpaceOnUse" x1="6557.58" y1="15093.7" x2="8786.42" y2="12876.8">
   <stop offset="0" style="stop-opacity:1; stop-color:#8E6338"/>
   <stop offset="0.121569" style="stop-opacity:1; stop-color:#FACD54"/>
   <stop offset="0.25098" style="stop-opacity:1; stop-color:#DAB96B"/>
   <stop offset="0.380392" style="stop-opacity:1; stop-color:#FFF9B1"/>
   <stop offset="0.521569" style="stop-opacity:1; stop-color:#DAB96B"/>
   <stop offset="0.65098" style="stop-opacity:1; stop-color:#F6CC5C"/>
   <stop offset="0.74902" style="stop-opacity:1; stop-color:#DAB96B"/>
   <stop offset="0.858824" style="stop-opacity:1; stop-color:#FFF9B1"/>
   <stop offset="1" style="stop-opacity:1; stop-color:#663333"/>
  </linearGradient>
  <linearGradient id="id6" gradientUnits="userSpaceOnUse" x1="17175.6" y1="16279.7" x2="17207.5" y2="18044.7">
   <stop offset="0" style="stop-opacity:1; stop-color:#B36D15"/>
   <stop offset="0.509804" style="stop-opacity:1; stop-color:#F6F181"/>
   <stop offset="1" style="stop-opacity:1; stop-color:#B67A17"/>
  </linearGradient>
  <linearGradient id="id7" gradientUnits="userSpaceOnUse" x1="9094.99" y1="13074.9" x2="15503" y2="16542.1">
   <stop offset="0" style="stop-opacity:1; stop-color:#A16809"/>
   <stop offset="0.341176" style="stop-opacity:1; stop-color:#F3FFA0"/>
   <stop offset="0.529412" style="stop-opacity:1; stop-color:#F3FFA0"/>
   <stop offset="1" style="stop-opacity:1; stop-color:#A16809"/>
  </linearGradient>
  <linearGradient id="id8" gradientUnits="userSpaceOnUse" xlink:href="#id6" x1="17047" y1="16272" x2="17078.8" y2="18037">
  </linearGradient>
  <linearGradient id="id9" gradientUnits="userSpaceOnUse" x1="14461.2" y1="17059.6" x2="14461.2" y2="17591">
   <stop offset="0" style="stop-opacity:1; stop-color:#009B4C"/>
   <stop offset="1" style="stop-opacity:1; stop-color:#0E5C40"/>
  </linearGradient>
  <linearGradient id="id10" gradientUnits="userSpaceOnUse" xlink:href="#id9" x1="16769.4" y1="13052.9" x2="16951.7" y2="15546.1">
  </linearGradient>
  <linearGradient id="id11" gradientUnits="userSpaceOnUse" xlink:href="#id9" x1="17249.3" y1="12845" x2="17445.5" y2="15875">
  </linearGradient>
 </defs>
 <g id="Layer_x0020_1">
  <metadata id="CorelCorpID_0Corel-Layer"/>
  <polygon class="fil0" points="5238,11998 15762,11998 15762,16294 5238,16294 "/>
  <polygon class="fil1" points="5418,12162 15582,12162 15582,16126 5418,16126 "/>
  <polygon class="fil0" points="5599,12327 15401,12327 15401,15919 5599,15919 "/>
  <polygon class="fil2" points="5780,12491 15220,12491 15220,15752 5780,15752 "/>
  <g style="clip-path:url(#id0)">
   <image x="5992" y="12650" width="3125" height="3134" xlink:href="โลโก้แนวนอน_Images\โลโก้แนวนอน_ImgID1.png"/>
  </g>
  <path class="fil3" d="M8531 14813l-3 4 -3 4 -2 4 -3 4 -2 3 -3 4 -3 4 -2 4 -3 4 -3 3 -2 4 -3 4 -3 4 -2 3 -3 4 -3 4 -3 4 -3 3 -2 4 -3 4 -3 3 -3 4 -3 4 -3 3 -2 4 -3 4 -3 3 -3 4 -3 3 -3 4 -3 4 -3 3 -10 3 -9 3 -10 2 -10 2 -10 2 -9 1 -10 2 -10 0 -10 1 -9 0 -10 0 -10 -1 -10 0 -10 -1 -9 -2 -10 -1 -10 -2 -10 -3 -10 -2 -9 -3 -10 -3 -10 -4 -10 -3 -10 -4 -10 -5 -9 -4 -10 -5 -10 -6 -10 -5 -10 -6 -10 -6 -10 -7 -13 9 -13 8 -14 8 -13 7 -13 6 -14 6 -13 6 -13 4 -14 5 -13 3 -13 4 -14 2 -13 2 -13 2 -13 1 -14 0 -13 0 -13 -1 -14 -1 -13 -2 -13 -3 -13 -3 -13 -3 -14 -5 -13 -5 -13 -5 -13 -6 -13 -7 -14 -7 -13 -7 -13 -9 -13 -9 -13 9 -13 9 -14 7 -13 7 -13 7 -13 6 -13 5 -14 5 -13 5 -13 3 -13 3 -13 3 -14 2 -13 1 -13 1 -14 0 -13 0 -13 -1 -13 -2 -14 -2 -13 -2 -13 -4 -14 -3 -13 -5 -13 -4 -14 -6 -13 -6 -13 -6 -14 -7 -13 -8 -13 -8 -14 -9 -13 9 -14 8 -13 8 -13 7 -14 6 -13 6 -13 6 -14 4 -13 5 -13 3 -14 4 -13 2 -13 2 -13 2 -14 1 -13 0 -13 0 -14 -1 -13 -1 -13 -2 -13 -3 -14 -3 -13 -3 -13 -5 -13 -5 -13 -5 -14 -6 -13 -7 -13 -7 -13 -7 -13 -9 -13 -9 -12 8 -12 8 -12 7 -12 7 -12 6 -12 6 -12 5 -12 5 -12 4 -12 4 -13 3 -12 3 -12 2 -12 2 -12 2 -12 1 -12 0 -12 0 -12 -1 -12 -1 -12 -1 -12 -2 -13 -2 -12 -3 -12 -3 -12 -4 -12 -4 -12 -5 -12 -5 -12 -6 -13 -6 -12 -6 -4 -6 -4 -5 -4 -5 -4 -5 -4 -6 -4 -5 -4 -5 -3 -6 -4 -5 -4 -5 -4 -6 -4 -5 -3 -6 -4 -5 -4 -6 -3 -5 3 -2 3 -2 2 -1 3 -2 3 -2 3 -2 3 -1 3 -2 13 8 14 8 13 7 13 7 14 6 13 6 14 5 13 5 13 4 13 3 14 3 13 3 13 2 14 1 13 1 13 1 14 -1 13 0 13 -2 13 -1 14 -3 13 -3 13 -3 13 -4 13 -5 14 -5 13 -6 13 -6 13 -7 13 -8 13 -8 14 -8 13 8 13 8 13 8 13 7 13 6 14 6 13 5 13 5 13 4 14 3 13 3 13 3 13 1 13 2 14 0 13 1 13 -1 14 -1 13 -1 13 -2 13 -3 14 -3 13 -3 13 -4 14 -5 13 -5 13 -6 14 -6 13 -7 13 -7 14 -8 13 -8 14 8 13 8 13 7 14 7 13 6 13 6 14 5 13 5 13 4 14 3 13 3 13 3 14 2 13 1 13 1 13 1 14 -1 13 0 13 -2 14 -1 13 -3 13 -3 13 -3 13 -4 14 -5 13 -5 13 -6 13 -6 13 -7 14 -8 13 -8 13 -8 13 8 13 8 13 8 14 7 13 6 13 6 13 5 13 5 14 4 13 3 13 3 13 3 13 1 14 2 13 0 13 1 14 -1 13 -1 13 -1 13 -2 14 -3 13 -3 13 -3 14 -4 13 -5 13 -5 14 -6 13 -6 13 -7 14 -7 13 -8 13 -8 13 8 13 7 12 7 13 6 13 6 12 6 13 5 13 5 12 4 13 4 12 3 13 2 13 3 12 1 13 2 12 0 13 1 12 -1 13 0 13 -2 12 -1 13 -2 12 -3 13 -3 12 -4 13 -4 12 -5 13 -5 12 -6 13 -6 12 -7 13 -7zm132 -263l-4 -1 -3 -1 -4 -1 -3 -1 -4 -1 -3 -2 -3 -1 -4 -1 -3 -2 -4 -1 -3 -2 -4 -1 -3 -2 -3 -1 -4 -2 -3 -2 -4 -2 -3 -1 -3 -2 -4 -2 -3 -2 -4 -2 -3 -2 -4 -2 -3 -2 -3 -2 -4 -2 -3 -2 -4 -2 -3 -2 -3 -3 -4 -2 -13 9 -13 8 -13 7 -14 7 -13 7 -13 5 -13 6 -13 4 -14 4 -13 4 -13 3 -13 2 -13 2 -14 1 -13 1 -13 0 -14 0 -13 -1 -13 -2 -13 -2 -14 -2 -13 -3 -13 -4 -14 -4 -13 -4 -13 -6 -14 -5 -13 -7 -13 -6 -14 -8 -13 -7 -14 -9 -13 9 -13 7 -14 8 -13 6 -13 7 -14 5 -13 6 -13 4 -14 4 -13 4 -13 3 -14 2 -13 2 -13 2 -13 1 -14 0 -13 0 -13 -1 -14 -1 -13 -2 -13 -2 -13 -3 -13 -4 -14 -4 -13 -4 -13 -6 -13 -5 -13 -7 -14 -7 -13 -7 -13 -8 -13 -9 -13 9 -13 8 -14 7 -13 7 -13 7 -13 5 -13 6 -14 4 -13 4 -13 4 -13 3 -13 2 -14 2 -13 1 -13 1 -14 0 -13 0 -13 -1 -13 -2 -14 -2 -13 -2 -13 -3 -14 -4 -13 -4 -13 -4 -14 -6 -13 -5 -13 -7 -14 -6 -13 -8 -13 -7 -14 -9 -13 9 -14 7 -13 8 -13 6 -14 7 -13 5 -13 6 -14 4 -13 4 -13 4 -14 3 -13 2 -13 2 -13 2 -14 1 -13 0 -13 0 -14 -1 -13 -1 -13 -2 -13 -2 -13 -3 -14 -4 -13 -4 -13 -4 -13 -6 -14 -5 -13 -7 -13 -7 -13 -7 -13 -8 -13 -9 -14 9 -13 8 -13 7 -13 7 -13 7 -13 5 -14 6 -13 4 -13 4 -13 4 -13 3 -14 2 -13 2 -13 1 -13 1 -14 0 -13 0 -13 -1 -14 -2 -13 -2 -13 -2 -14 -3 -13 -4 -13 -4 -13 -4 -14 -6 -13 -5 -14 -7 -13 -6 -13 -8 -14 -7 -13 -9 -5 3 -5 3 -4 3 -5 3 -5 3 -5 2 -4 3 -5 2 -5 3 -4 2 -5 3 -5 2 -5 2 -4 2 -5 3 -5 2 -5 1 -4 2 -5 2 -5 2 -5 2 -4 1 -5 2 -5 1 -5 2 -4 1 -5 1 -5 2 -4 1 -5 1 -5 1 -5 1 2 3 1 4 1 3 1 3 2 4 1 3 1 3 2 4 1 3 1 3 2 3 1 4 1 3 2 3 1 4 2 3 1 3 1 3 2 4 1 3 2 3 1 4 2 3 1 3 1 3 2 3 1 4 2 3 1 3 2 3 1 4 2 3 3 -1 4 -2 3 -1 3 -1 4 -1 3 -2 3 -1 4 -1 3 -2 3 -1 4 -2 3 -1 3 -2 4 -2 3 -1 3 -2 4 -2 3 -1 3 -2 4 -2 3 -2 4 -2 3 -2 3 -2 4 -2 3 -2 3 -2 4 -2 3 -2 3 -2 4 -2 3 -2 13 8 14 8 13 8 13 7 14 7 13 6 14 5 13 5 13 4 13 4 14 3 13 3 13 2 14 1 13 1 13 0 14 0 13 -1 13 -1 13 -2 14 -2 13 -4 13 -3 13 -4 13 -5 14 -6 13 -6 13 -6 13 -7 13 -8 13 -8 14 -9 13 9 13 8 13 8 13 7 13 6 14 6 13 6 13 5 13 4 13 3 14 4 13 2 13 2 13 1 14 1 13 0 13 0 14 -1 13 -1 13 -2 13 -3 14 -3 13 -4 13 -4 14 -5 13 -5 13 -6 14 -7 13 -7 13 -8 14 -8 13 -8 14 8 13 8 13 8 14 7 13 7 13 6 14 5 13 5 13 4 14 4 13 3 13 3 14 2 13 1 13 1 13 0 14 0 13 -1 13 -1 14 -2 13 -2 13 -4 13 -3 13 -4 14 -5 13 -6 13 -6 13 -6 13 -7 14 -8 13 -8 13 -9 13 9 13 8 13 8 14 7 13 6 13 6 13 6 13 5 14 4 13 3 13 4 13 2 13 2 14 1 13 1 13 0 14 0 13 -1 13 -1 13 -2 14 -3 13 -3 13 -4 14 -4 13 -5 13 -5 14 -6 13 -7 13 -7 14 -8 13 -8 13 -8 14 8 13 8 14 8 13 7 13 7 14 6 13 5 13 5 14 4 13 4 13 3 14 3 13 2 13 1 13 1 14 0 13 0 13 -1 14 -1 13 -2 13 -2 13 -4 13 -3 14 -4 13 -5 13 -6 13 -6 13 -6 14 -7 13 -8 13 -8 13 -9 4 3 5 2 4 3 4 3 4 3 5 2 4 3 4 2 4 3 5 2 4 3 4 2 4 2 5 2 4 2 4 2 2 -3 1 -3 1 -3 2 -3 1 -3 2 -3 1 -3 1 -3 2 -3 1 -3 1 -4 2 -3 1 -3 1 -3 2 -3 1 -3 1 -3 1 -3 2 -3 1 -4 1 -3 2 -3 1 -3 1 -3 1 -3 1 -4 2 -3 1 -3 1 -3 1 -3 1 -3 2 -4zm-2409 -63l5 -1 6 0 5 -1 6 -1 5 -1 6 -2 5 -1 6 -1 5 -2 6 -1 5 -2 6 -2 5 -2 6 -2 5 -2 6 -2 5 -2 6 -3 5 -2 6 -3 5 -2 6 -3 5 -3 6 -3 5 -3 6 -3 5 -3 6 -3 5 -4 6 -3 5 -4 6 -3 13 8 14 9 13 7 13 7 14 7 13 6 14 5 13 5 13 4 13 4 14 3 13 3 13 2 14 1 13 1 13 1 14 -1 13 0 13 -2 13 -2 14 -2 13 -3 13 -4 13 -4 13 -5 14 -5 13 -6 13 -7 13 -7 13 -8 13 -8 14 -9 13 9 13 8 13 8 13 7 13 7 14 6 13 5 13 5 13 4 13 4 14 3 13 2 13 2 13 2 14 0 13 1 13 -1 14 -1 13 -1 13 -2 13 -3 14 -3 13 -4 13 -4 14 -5 13 -5 13 -6 14 -7 13 -7 13 -7 14 -9 13 -8 14 8 13 9 13 7 14 7 13 7 13 6 14 5 13 5 13 4 14 4 13 3 13 3 14 2 13 1 13 1 13 1 14 -1 13 0 13 -2 14 -2 13 -2 13 -3 13 -4 13 -4 14 -5 13 -5 13 -6 13 -7 13 -7 14 -8 13 -8 13 -9 13 9 13 8 13 8 14 7 13 7 13 6 13 5 13 5 14 4 13 4 13 3 13 2 13 2 14 2 13 0 13 1 14 -1 13 -1 13 -1 13 -2 14 -3 13 -3 13 -4 14 -4 13 -5 13 -5 14 -6 13 -7 13 -7 14 -7 13 -9 13 -8 14 8 13 9 14 7 13 7 13 7 14 6 13 5 13 5 14 4 13 4 13 3 14 3 13 2 13 1 13 1 14 1 13 -1 13 0 14 -2 13 -2 13 -2 13 -3 13 -4 14 -4 13 -5 13 -5 13 -6 13 -7 14 -7 13 -8 13 -8 13 -9 4 3 4 2 5 3 4 3 4 3 4 2 4 3 4 2 4 3 5 2 4 2 4 2 4 3 4 2 4 2 4 2 5 2 4 2 4 1 4 2 4 2 4 2 4 1 5 2 4 1 4 2 4 1 4 1 4 1 4 2 5 1 4 1 3 -11 3 -11 3 -11 3 -10 3 -11 2 -11 3 -11 2 -11 3 -11 2 -11 2 -12 2 -11 3 -11 1 -11 2 -11 2 -12 2 -11 1 -11 2 -12 1 -11 1 -12 1 -11 1 -12 1 -11 1 -12 1 -11 0 -12 1 -12 0 -11 0 -12 0 -12 0 -12 -1 -65 -5 -64 -8 -63 -11 -63 -15 -61 -17 -60 -20 -59 -23 -58 -25 -56 -28 -55 -31 -53 -33 -52 -35 -49 -38 -48 -40 -46 -42 -45 -44 -42 -46 -40 -48 -37 -50 -36 -52 -33 -53 -31 -55 -28 -56 -25 -57 -23 -59 -20 -61 -17 -61 -14 -62 -12 -64 -8 -64 -5 -65 -1 -65 1 -65 5 -63 8 -63 12 -61 14 -60 17 -59 20 -58 23 -56 25 -55 28 -53 31 -51 33 -50 36 -48 37 -46 40 -44 42 -43 45 -39 46 -38 48 -36 49 -33 52 -30 53 -28 55 -26 56 -23 58 -20 59 -17 60 -14 61 -11 63 -8 63 -5 64 -2 65 0 12 0 12 0 12 1 12 0 12 1 12 1 12 1 12 0 11 2 12 1 12 1 12 1 11 2 12 1 11 2 12 2 12 2 11 2 12 2 11 2 11 2 12 3 11 2 11 3 12 3 11 2 11 3 11 3 11 3 11 4 11 3 11zm1215 -1715l69 2 68 5 67 9 66 12 65 15 64 18 63 21 61 24 60 27 58 30 56 33 55 35 52 37 51 40 49 43 47 44 45 47 42 49 40 51 38 53 35 54 32 57 30 58 27 59 24 61 21 63 19 64 15 65 11 66 9 67 5 68 2 69 -2 70 -5 68 -9 67 -11 66 -15 65 -19 64 -21 62 -24 62 -27 59 -30 58 -32 57 -35 54 -38 53 -40 51 -42 49 -45 47 -47 44 -49 43 -51 40 -52 37 -55 35 -56 33 -58 29 -60 28 -61 24 -63 21 -64 18 -65 15 -66 12 -67 9 -68 5 -69 2 -69 -2 -69 -5 -67 -9 -66 -12 -65 -15 -64 -18 -62 -21 -61 -24 -60 -28 -58 -29 -56 -33 -55 -35 -53 -37 -51 -40 -49 -43 -47 -44 -44 -47 -43 -49 -40 -51 -37 -53 -35 -54 -33 -57 -29 -58 -28 -59 -24 -62 -21 -62 -18 -64 -15 -65 -12 -66 -9 -67 -5 -68 -2 -70 2 -69 5 -68 9 -67 12 -66 15 -65 18 -64 21 -63 24 -61 28 -59 29 -58 33 -57 35 -54 37 -53 40 -51 43 -49 44 -47 47 -44 49 -43 51 -40 53 -37 55 -35 56 -33 58 -30 60 -27 61 -24 62 -21 64 -18 65 -15 66 -12 67 -9 69 -5 69 -2zm-834 1681l5 -20 6 -19 6 -19 7 -19 7 -19 8 -18 8 -18 9 -17 9 -18 10 -17 10 -16 11 -16 11 -16 11 -16 13 -15 12 -15 13 -14 13 -14 14 -14 14 -13 15 -13 15 -12 16 -12 15 -11 17 -11 16 -10 17 -10 17 -9 18 -9 18 -8 18 -8 19 -7 0 56 -15 7 -16 7 -14 7 -15 8 -14 9 -14 8 -14 10 -14 9 -13 10 -13 11 -13 10 -12 11 -12 12 -12 12 -11 12 -12 12 -10 13 -11 13 -10 13 -10 14 -9 14 -9 14 -9 14 -8 15 -8 15 -7 15 -7 15 -6 16 -7 15 -5 16 -6 16 -4 16 -4 1 -4 1 -4 0 -3 1 -4 1 -3 0 -4 1 -3 1 -3 0 -4 1 -3 0 -4 0 -3 0 -4 1 -4 0 -4 0zm94 -11l5 -15 5 -14 6 -14 5 -14 6 -14 7 -14 6 -13 7 -13 8 -13 7 -13 8 -12 9 -13 8 -12 9 -11 9 -12 10 -11 9 -11 10 -11 11 -10 10 -10 11 -10 12 -10 11 -9 12 -9 12 -8 12 -9 12 -7 13 -8 13 -7 14 -7 13 -7 14 -6 0 192 -5 4 -4 3 -5 3 -4 4 -4 3 -4 4 -5 3 -4 4 -3 4 -4 4 -4 4 -4 4 -3 4 -4 4 -3 4 -4 4 -3 4 -3 4 -4 5 -3 4 -3 4 -3 5 -3 4 -3 5 -3 5 -3 4 -3 5 -3 5 -3 5 -2 4 -3 5 -3 5 -4 -2 -4 -2 -4 -2 -5 -2 -4 -2 -4 -2 -4 -2 -4 -3 -4 -2 -5 -2 -4 -3 -4 -2 -4 -3 -4 -3 -4 -2 -4 -3 -4 2 -4 3 -4 2 -4 3 -4 2 -4 3 -4 2 -4 2 -4 2 -3 3 -4 2 -4 2 -4 2 -4 2 -4 2 -4 2 -4 1 -4 2 -4 2 -4 2 -3 1 -4 2 -4 1 -4 2 -4 1 -4 1 -4 2 -4 1 -4 1 -4 1 -4 2 -4 1zm-287 -52l8 -27 8 -27 10 -26 10 -26 11 -26 11 -25 13 -25 13 -24 14 -24 15 -23 15 -23 16 -22 17 -21 17 -21 18 -21 19 -20 19 -19 20 -18 21 -18 21 -18 22 -16 22 -16 23 -15 23 -14 24 -14 25 -13 25 -12 25 -11 26 -10 26 -10 27 -9 27 -7 0 172 -21 8 -20 8 -19 8 -20 9 -19 10 -18 11 -18 11 -18 11 -17 12 -17 13 -17 13 -16 13 -16 15 -15 14 -14 15 -15 16 -13 16 -14 16 -12 17 -13 17 -11 18 -12 18 -10 18 -10 19 -10 19 -9 20 -8 20 -8 20 -7 20 -7 21 -6 21 -5 21 -5 0 -5 -1 -5 -1 -4 -1 -5 -1 -5 -1 -5 -1 -5 -2 -5 -1 -5 -1 -4 -2 -5 -1 -5 -2 -5 -2 -5 -1 -5 -2 -5 -2 -4 -2 -5 -2 -5 -2 -5 -2 -5 -2 -5 -3 -5 -2 -5 -3 -4 -2 -5 -3 -5 -2 -5 -3 -5 -3 -5 -3 -5 -3zm1137 54l-7 1 -7 2 -8 1 -7 1 -7 1 -7 1 -7 0 -7 1 -7 0 -7 0 -7 0 -7 0 -7 0 -7 -1 -7 0 -7 -1 -7 -1 -7 -1 -7 -1 -7 -2 -7 -1 -7 -2 -7 -2 -7 -2 -7 -2 -7 -2 -7 -3 -7 -3 -7 -2 -7 -3 -8 -3 -7 -4 0 -1150 226 0 0 1178zm-269 -46l-3 -2 -3 -2 -4 -2 -3 -2 -3 -2 -4 -2 -3 -2 -3 -2 -5 3 -4 3 -4 3 -3 3 -4 2 -4 3 -4 2 -4 3 0 -1138 58 0 0 1132zm-97 18l-5 2 -4 2 -5 2 -4 2 -5 2 -4 2 -5 1 -4 2 -4 2 -5 1 -4 2 -4 1 -4 1 -4 2 -5 1 -4 1 -4 1 -4 1 -5 1 -4 1 -4 1 -4 1 -4 0 -5 1 -4 1 -4 0 -5 1 -4 0 -5 0 -4 1 -5 0 -4 0 0 -1186 139 0 0 1150zm666 -1150l-3 11 -4 11 -4 11 -4 11 -5 11 -5 10 -6 10 -5 10 -6 10 -7 9 -6 9 -7 9 -7 9 -7 8 -8 8 -8 8 -8 7 -9 7 -9 7 -9 7 -9 6 -9 6 -10 5 -10 5 -11 5 -10 4 -11 4 -11 4 -11 3 -12 3 -11 2 -12 2 0 -232 254 0zm41 0l57 0 -4 16 -4 16 -5 16 -6 15 -6 15 -6 15 -7 15 -8 14 -8 14 -8 13 -9 13 -10 13 -9 12 -11 12 -10 12 -12 11 -11 10 -12 10 -13 10 -12 9 -14 9 -13 8 -14 8 -14 7 -15 6 -15 6 -15 5 -16 5 -16 4 -16 4 -16 2 -17 2 0 -53 14 -2 13 -3 13 -3 13 -3 13 -5 12 -4 13 -5 12 -6 11 -6 12 -7 11 -7 11 -7 11 -8 10 -8 10 -8 10 -9 9 -10 9 -9 9 -10 8 -11 8 -10 8 -11 7 -11 7 -12 6 -11 6 -12 6 -13 5 -12 5 -12 5 -13 4 -13 4 -13zm107 0l-4 19 -5 18 -5 18 -6 18 -7 17 -7 18 -8 16 -8 17 -9 16 -10 15 -10 15 -11 15 -11 14 -12 14 -12 13 -13 13 -13 12 -14 12 -14 11 -15 11 -15 9 -16 10 -16 8 -16 8 -17 8 -17 7 -18 5 -18 6 -18 4 -19 4 -19 3 -19 2 0 360 39 -3 38 -4 37 -6 37 -8 36 -9 35 -11 34 -12 33 -13 33 -15 31 -16 31 -18 29 -19 29 -20 28 -21 26 -23 25 -24 25 -24 23 -26 22 -28 21 -28 20 -29 18 -30 17 -31 16 -32 15 -33 13 -34 12 -35 11 -35 9 -36 8 -37 6 -38 5 -38 -360 0z"/>
  <path class="fil4" d="M9168 17013c57,-44 123,-79 197,-79 43,0 82,15 112,41 12,-18 25,-34 41,-47 29,-25 65,-36 103,-36 42,0 82,13 115,38 49,35 72,92 62,152l-2 14 -5 13c-19,43 -30,131 -36,178 -11,82 -19,166 -19,249l0 27 -11 24c-19,38 -51,66 -89,84 -31,14 -65,22 -100,22 -20,0 -41,-3 -60,-8 -39,-10 -71,-34 -94,-66l-15 -22 -3 -14c-18,-24 -71,-62 -115,-91 -2,13 -4,27 -6,40l-1 5 -1 5c-11,45 -38,82 -76,108 -34,22 -72,34 -113,34 -69,0 -129,-34 -158,-98l-8 -16 -4 24 -29 27c-40,37 -92,52 -145,52 -41,0 -80,-9 -114,-31 -7,-4 -13,-8 -19,-13 -44,38 -97,64 -158,64 -79,0 -152,-30 -191,-101 0,-1 -1,-2 -1,-3 -48,40 -105,63 -169,63 -52,0 -96,-22 -130,-59 0,0 0,0 0,0 -10,9 -21,17 -31,26 -12,9 -25,18 -38,25 -15,8 -30,14 -46,17 -12,3 -25,4 -38,4 -46,0 -89,-16 -125,-44 -1,-1 -2,-2 -3,-3 -14,19 -32,35 -53,47 -30,18 -65,28 -101,28 -29,0 -58,-6 -84,-19 -33,-16 -58,-44 -74,-77l-13 -27c-19,22 -40,42 -63,59 -34,25 -74,40 -118,40 -77,0 -148,-27 -198,-83 0,0 -1,-1 -2,-1 -58,58 -132,90 -218,90 -84,0 -152,-51 -206,-116 -2,7 -4,13 -6,20l-3 7 -3 7c-33,66 -96,100 -169,100 -71,0 -134,-33 -167,-97l-5 -11c-11,18 -24,35 -41,49 -36,31 -79,48 -126,48 -9,0 -17,-1 -26,-3 -5,-1 -10,-2 -14,-3l-31 -6 -24 -21c-21,-19 -40,-39 -58,-61 -2,2 -4,3 -6,5 -33,24 -68,48 -104,66l-5 3 -5 2c-20,8 -41,12 -63,12 -24,0 -48,-5 -71,-13 -20,-8 -38,-18 -56,-31 -20,-15 -37,-34 -49,-56 -16,-26 -24,-56 -24,-86 0,-9 1,-18 3,-27 1,-3 2,-7 2,-10l3 -13 4 -10c3,-7 5,-16 6,-23 2,-5 3,-10 4,-14 -63,-16 -112,-61 -128,-129l-3 -14 0 -14c0,-64 17,-126 48,-183l1 -1c43,-75 110,-126 197,-130 -17,-26 -26,-58 -26,-94 0,-76 54,-128 114,-165 51,-31 108,-53 169,-53 64,0 124,23 161,77 2,0 3,-1 5,-2 26,-8 52,-16 78,-24l3 0c92,-23 186,-33 281,-33 42,0 82,14 113,44 29,29 45,67 45,108 0,55 -28,104 -76,131l-19 11 -21 3c-28,4 -55,9 -83,14 20,8 38,18 56,29 36,-27 79,-39 125,-39 30,0 58,5 85,17 39,-29 85,-45 137,-45 92,0 168,45 224,117 7,10 14,19 20,29 77,-87 178,-134 299,-134 108,0 202,38 277,111 44,-52 101,-89 170,-96 -86,-20 -148,-82 -148,-175 0,-28 6,-54 16,-80l15 -35 33 -20c24,-15 51,-24 78,-31 31,-8 63,-12 95,-12 69,0 137,12 203,30 52,14 104,27 156,39 10,3 23,6 36,8 0,-2 1,-5 1,-7l3 -17 8 -16c32,-65 98,-91 168,-91 31,0 62,6 91,19 36,17 64,44 82,80l13 25 0 28c0,34 -1,68 -1,101 -1,46 -2,91 -4,136 0,23 -1,45 -1,68 41,-29 89,-45 140,-45 26,0 52,5 75,15 42,-27 89,-43 140,-43 98,0 179,37 236,108zm-1366 -81c30,6 57,17 82,34l17 -15c6,-5 12,-10 19,-14 -16,-4 -33,-7 -47,-8l-71 3zm404 60c6,11 10,23 13,35 0,-11 1,-22 1,-33 -4,-1 -9,-1 -14,-2zm3512 379c4,11 6,23 8,36l1 7 0 7c0,67 -40,126 -83,174 -53,59 -120,106 -201,106 -78,0 -151,-30 -189,-102 -1,-1 -1,-2 -2,-3 -54,66 -127,106 -214,106 -46,0 -90,-12 -127,-38 -20,-14 -36,-30 -49,-49 -8,10 -17,19 -26,27 -36,31 -80,47 -127,47 -8,0 -17,-1 -25,-2 -5,-1 -10,-2 -15,-3l-31 -6 -23 -22c-21,-18 -40,-39 -59,-60 -2,2 -4,3 -6,5 -32,24 -67,48 -103,66l-5 2 -5 2c-20,8 -41,13 -63,13 -24,0 -48,-5 -71,-14 -20,-7 -39,-18 -56,-30 -20,-16 -37,-35 -50,-56 -15,-27 -23,-56 -23,-86 0,-9 1,-18 3,-27 0,-3 1,-7 2,-11l2 -12 5 -11c2,-6 4,-15 6,-22 1,-5 2,-10 3,-15 -63,-15 -111,-60 -127,-129l-4 -13 0 -14c0,-65 17,-126 49,-183l1 -2c41,-71 105,-121 186,-129 -7,-21 -11,-43 -11,-67 0,-67 11,-135 47,-192l6 -10 9 -9c35,-38 83,-55 134,-55 44,0 85,13 123,35 31,19 57,44 74,76 19,-2 37,-4 56,-5 37,-4 73,-7 109,-9 27,-2 55,-3 83,-3 31,0 62,1 93,4 10,-13 22,-25 33,-36 84,-89 189,-150 314,-150 70,0 134,24 182,75 51,55 67,129 67,202 0,29 -1,58 -3,88 -1,39 -3,78 -4,117 0,1 0,1 0,2 4,-2 7,-4 11,-6 82,-42 170,-66 262,-66 88,0 180,15 255,65 27,17 50,38 68,62 76,-82 175,-127 293,-127 107,0 201,38 276,111 49,-57 112,-97 191,-97 49,0 93,13 130,39l17 -15c41,-35 91,-54 144,-54 44,0 84,14 118,42 18,15 33,33 43,53 12,-22 29,-42 51,-56 32,-22 68,-32 106,-32 33,0 65,8 95,23 37,19 65,50 79,90l2 5c10,-11 21,-21 33,-31 -24,-23 -45,-49 -64,-76 -40,-57 -74,-123 -74,-195 0,-35 10,-69 30,-97l4 -5 4 -5c38,-43 92,-58 148,-58 49,0 101,12 148,27 21,6 41,13 61,20 29,-16 60,-23 93,-23 28,0 56,6 82,17 24,-11 51,-17 79,-17 79,0 146,44 167,122l4 16 -2 233 -7 20c-2,5 -4,10 -7,15 78,-49 165,-75 259,-75 86,0 167,19 237,63 38,-30 84,-45 132,-45 30,0 58,6 85,18 39,-29 85,-46 137,-46 92,0 168,45 224,118 61,79 84,175 84,274 0,93 -23,182 -80,256 -62,81 -147,126 -250,126 -102,0 -180,-73 -237,-156 -7,9 -13,18 -21,27 -79,96 -187,141 -311,141 -42,0 -83,-7 -122,-22 -40,-14 -75,-36 -106,-65 -11,-10 -21,-22 -31,-34l-1 3c-15,43 -47,74 -87,94 -31,15 -64,24 -99,24 -25,0 -49,-5 -72,-14 -33,-12 -61,-35 -80,-65l-3 -4 -2 -5c-3,-4 -6,-9 -9,-13 -1,2 -2,3 -4,5 -37,47 -85,85 -146,94l-9 2 -9 0c-63,0 -117,-35 -162,-77 -46,41 -101,69 -165,69 -71,0 -137,-24 -178,-79 -45,34 -97,53 -156,53 -52,0 -96,-23 -130,-59 0,0 0,0 0,0 -10,8 -21,17 -31,25 -12,10 -25,19 -38,26 -15,8 -30,13 -45,17 -13,2 -26,3 -39,3 -46,0 -89,-16 -125,-44 -1,0 -2,-1 -3,-2 -14,19 -32,34 -52,47 -31,18 -66,28 -102,28 -29,0 -57,-6 -84,-19 -33,-17 -58,-44 -74,-78l-12 -26c-19,21 -40,42 -64,58 -34,25 -74,41 -117,41 -78,0 -149,-27 -199,-83 0,0 0,0 0,0 -1,2 -2,3 -2,5l-3 6 -3 6c-18,31 -44,54 -76,69 -28,14 -58,21 -89,21 -68,0 -133,-25 -166,-88l-8 -14 -3 -16c-10,-46 -23,-91 -36,-133 -6,-16 -20,-53 -35,-79l-16 0z"/>
  <g style="clip-path:url(#id1)">
   <image x="5417" y="16571" width="10131" height="1066" xlink:href="โลโก้แนวนอน_Images\โลโก้แนวนอน_ImgID2.png"/>
  </g>
  <path class="fil5" d="M6064 17480c1,5 2,9 2,12 1,2 1,5 1,7 0,18 -8,34 -22,46 -15,13 -32,19 -50,19 -1,0 -3,0 -6,0 -2,-1 -6,-1 -10,-2 -19,-17 -37,-36 -54,-56 -11,-14 -22,-27 -32,-42 -10,-14 -19,-29 -29,-45 -15,13 -31,26 -47,40 -16,13 -33,26 -51,40 -35,26 -64,44 -87,56 -7,2 -13,4 -20,4 -9,0 -19,-2 -29,-6 -10,-4 -19,-8 -27,-15 -8,-6 -14,-13 -19,-21 -5,-9 -7,-18 -7,-27 0,-1 0,-2 0,-5 1,-2 1,-6 2,-10 4,-9 8,-22 12,-40 5,-18 9,-42 14,-70 10,-56 16,-104 16,-145 0,-22 -2,-39 -6,-52 -3,-12 -9,-18 -18,-18 -5,0 -8,3 -11,9 -3,7 -4,15 -4,24 0,11 1,23 4,34 3,11 6,19 11,24 -14,27 -36,40 -67,40 -35,0 -56,-15 -63,-45 0,-44 11,-86 33,-126 28,-47 64,-71 107,-71 48,0 82,24 103,73 17,35 26,87 26,154 0,18 -1,37 -3,57 -2,21 -4,39 -5,54 21,-17 38,-31 50,-42 12,-11 23,-22 32,-34 -10,-32 -16,-65 -16,-98 0,-42 12,-82 35,-121 28,-43 62,-64 104,-64 31,0 55,12 73,35 18,24 27,53 27,85 0,31 -6,61 -20,91 -14,29 -32,58 -54,87 7,15 15,30 24,46 9,15 19,32 30,50 8,10 15,21 24,33 8,11 17,23 27,35zm-135 -332c1,-3 2,-8 2,-15 0,-7 -1,-11 -3,-13 -3,-1 -6,1 -10,7 -4,6 -7,12 -9,18 -1,3 -1,11 -1,24 0,12 0,19 1,20 9,-11 16,-25 20,-41zm476 -339c-48,8 -93,16 -134,25 -41,9 -80,18 -117,29 -32,9 -68,21 -109,36 -42,15 -90,33 -146,55 -8,4 -18,5 -31,5 -16,0 -30,-4 -40,-14 -11,-9 -16,-20 -16,-32 3,-10 7,-22 10,-36 3,-14 4,-26 4,-35 0,-13 -1,-20 -5,-24 -2,-3 -4,-4 -7,-3 -3,1 -7,3 -10,5 -3,2 -5,5 -7,8 -2,4 -2,7 0,9 4,5 10,9 17,13 -9,9 -21,17 -34,22 -14,6 -26,9 -36,9 -38,0 -57,-18 -57,-53 0,-20 20,-41 58,-65 39,-24 75,-36 108,-36 31,0 53,9 65,28 12,18 18,39 18,63 0,11 -1,18 -1,19 49,-16 89,-30 120,-40 32,-10 56,-18 73,-23 79,-19 163,-29 253,-29 13,0 23,3 30,10 8,7 11,16 11,25 0,13 -6,23 -17,29zm32 485c0,49 -5,96 -14,140 -4,24 -8,46 -13,64 -4,18 -8,32 -12,43 -11,23 -33,35 -64,35 -30,0 -51,-12 -63,-34 4,-14 7,-30 11,-49 3,-19 7,-40 11,-63 3,-24 6,-47 8,-69 1,-21 2,-41 2,-60 0,-56 -8,-96 -24,-121 -17,-24 -39,-36 -67,-36 -23,0 -34,14 -34,43 0,6 0,15 2,26 1,12 3,27 7,44 2,10 3,18 4,24 1,7 1,12 1,17 -10,19 -29,28 -57,28 -16,1 -29,-1 -39,-7 -10,-6 -17,-13 -23,-22 -6,-10 -10,-20 -12,-33 -1,-12 -2,-24 -1,-36 0,-54 12,-99 35,-135 27,-40 66,-60 116,-60 74,0 131,27 172,81 36,46 54,106 54,180zm497 -2c0,75 -19,137 -56,186 -40,53 -93,79 -157,79 -59,0 -123,-63 -191,-189 -55,-106 -85,-188 -90,-244 -4,-23 2,-42 19,-57 16,-14 37,-21 62,-21 16,0 30,3 43,10 6,42 14,82 24,120 11,38 23,77 37,116 36,96 71,143 106,143 9,0 17,-3 24,-11 8,-7 14,-17 19,-30 5,-13 9,-27 11,-43 3,-17 5,-34 5,-52 0,-51 -5,-93 -13,-124 -9,-32 -20,-48 -36,-48 -9,0 -14,15 -14,44 0,4 0,9 0,15 1,6 2,12 2,18 -12,24 -34,37 -65,37 -36,0 -56,-16 -62,-48 -5,-36 6,-73 34,-111 30,-43 66,-64 107,-64 51,0 94,24 131,71 40,53 60,120 60,203zm625 242c-5,13 -14,23 -27,30 -12,8 -26,12 -41,12 -13,0 -23,-2 -32,-7 -8,-4 -15,-12 -20,-23 10,-43 14,-88 14,-134 0,-40 -3,-76 -10,-110 -6,-33 -17,-63 -31,-89 3,10 4,19 4,28 0,1 0,4 -1,8 0,4 -1,8 -2,13l-9 0c-6,1 -12,3 -17,8 -30,46 -56,86 -79,121 -23,35 -45,65 -64,89 -20,23 -38,41 -55,54 -17,12 -33,18 -50,18 -48,0 -85,-16 -113,-46 -30,-32 -45,-81 -45,-146 0,-70 23,-138 69,-203 59,-85 138,-127 236,-127 87,0 158,33 214,98 56,67 84,149 84,247 0,55 -8,108 -25,159zm-190 -372c-19,-18 -45,-27 -77,-27 -56,0 -101,27 -135,79 -28,43 -42,88 -42,136 0,24 2,45 4,62 2,16 6,25 12,25 7,0 35,-47 86,-140 53,-95 96,-142 131,-142 11,2 18,4 21,7zm851 202c0,45 -18,85 -53,119 -33,35 -70,52 -111,52 -21,0 -38,-11 -53,-34 -15,-22 -25,-53 -31,-92l-19 12c-4,4 -15,13 -32,26 -17,13 -40,31 -70,56 -12,10 -22,18 -30,24 -7,6 -14,11 -19,14 -5,2 -10,4 -15,5 -4,1 -9,2 -14,2 -19,0 -37,-7 -54,-20 -17,-13 -25,-29 -25,-46 0,-1 0,-3 1,-5 0,-3 1,-6 2,-11 4,-12 10,-28 16,-47 7,-20 14,-43 21,-70 19,-69 28,-120 28,-155 0,-26 -6,-39 -19,-39 -10,0 -18,9 -24,27 -7,19 -10,36 -10,53 0,1 0,5 2,13 -11,23 -32,35 -63,35 -32,0 -52,-13 -61,-40 0,-33 16,-73 47,-120 37,-52 77,-79 120,-79 45,0 78,20 97,61 17,31 26,76 26,133 0,13 0,24 -1,33 0,9 -1,17 -1,26 -1,8 -2,17 -3,26 -2,10 -4,20 -7,33 14,-11 30,-21 49,-33 18,-11 35,-21 52,-29 0,-51 2,-102 4,-156 2,-27 3,-48 4,-64 1,-16 2,-27 3,-34 20,-17 42,-25 68,-25 17,0 32,5 44,15 12,9 18,22 18,38 -2,8 -4,18 -5,32 -1,13 -3,28 -4,45 -1,16 -3,33 -3,52 -1,19 -2,37 -2,53l14 0c40,0 69,10 86,30 18,19 27,48 27,84zm-116 7c0,-11 -5,-15 -15,-13 -1,3 -1,8 -1,16 0,17 2,25 5,25 7,0 11,-9 11,-28zm480 42c0,24 -18,57 -54,97 -39,44 -77,66 -113,66 -44,0 -73,-13 -87,-40 -10,-18 -15,-47 -15,-85 1,-20 2,-41 3,-63 1,-21 2,-45 4,-69 3,-48 7,-130 12,-244 5,-115 8,-185 8,-211 -22,9 -49,14 -83,14 -42,0 -93,-7 -152,-20 -130,-31 -208,-46 -234,-46l-104 4c-45,-8 -67,-29 -67,-63 0,-10 3,-22 8,-35 11,-7 26,-13 46,-18 20,-5 42,-7 66,-7 52,0 109,8 172,25 137,37 221,56 253,56 26,0 47,-13 63,-39 11,-21 19,-44 24,-71 9,-17 30,-26 63,-26 16,0 30,3 42,8 12,6 21,15 27,27 0,25 0,58 -1,99 -1,40 -2,85 -4,135 -1,50 -3,102 -4,158 -2,56 -4,113 -6,170 -2,117 -4,183 -4,199 5,-4 10,-11 17,-23 7,-12 10,-22 11,-30 8,-11 22,-17 42,-17 17,0 32,4 44,13 13,9 21,21 23,36zm543 102c-3,15 -12,28 -27,38 -15,9 -31,14 -48,14 -25,0 -43,-10 -52,-29 4,-39 7,-75 9,-106 2,-31 3,-63 3,-96 0,-62 -5,-108 -17,-137 -15,-40 -39,-59 -71,-59 -47,0 -87,77 -120,232 -9,45 -16,81 -21,108 -5,26 -8,45 -10,55 -15,14 -37,21 -65,21 -21,0 -38,-4 -52,-13 -15,-9 -22,-23 -22,-42 7,-58 11,-105 14,-141 3,-37 5,-69 5,-98 0,-12 0,-22 -1,-32 0,-10 -2,-23 -4,-40 -3,-18 -11,-28 -24,-31 -13,-4 -24,-5 -34,-4 8,-33 24,-58 48,-77 24,-19 51,-28 79,-28 21,0 36,7 48,20 11,13 18,30 23,53 17,-29 36,-52 56,-69 28,-21 58,-32 88,-32 79,0 135,35 170,104 27,53 40,126 40,220 0,33 -1,60 -4,81 -1,10 -2,23 -4,38 -2,15 -4,32 -7,50zm556 -452c-15,35 -30,105 -44,208 -14,104 -20,192 -20,265 -6,12 -16,21 -32,28 -16,8 -33,12 -51,12 -10,0 -20,-2 -31,-5 -10,-2 -20,-9 -28,-21 -8,-43 -82,-107 -223,-193 -61,-37 -92,-78 -92,-121 0,-46 26,-90 77,-130 47,-36 89,-55 126,-55 25,0 44,14 57,42 14,27 20,59 20,96 0,18 -8,33 -24,45 -17,11 -35,16 -56,16 -18,0 -32,-4 -40,-14 0,-2 1,-9 3,-21 2,-11 3,-19 3,-25 -6,5 -11,11 -15,18 -5,7 -7,13 -7,19 0,20 34,48 100,82 23,12 41,21 56,30 16,8 27,16 35,22 0,-59 10,-127 31,-204 21,-75 43,-122 65,-139 7,-6 16,-9 28,-9 17,0 33,5 46,15 13,10 19,23 16,39z"/>
  <path class="fil6" d="M15493 17300c0,75 -19,137 -56,185 -40,53 -92,80 -157,80 -59,0 -123,-63 -191,-189 -55,-107 -85,-188 -90,-244 -4,-23 2,-42 19,-57 16,-14 37,-22 62,-22 16,0 30,4 43,10 6,42 14,83 25,121 10,38 22,77 36,116 36,96 71,143 106,143 9,0 17,-4 25,-11 7,-8 13,-18 18,-30 5,-13 9,-27 12,-44 2,-16 4,-33 4,-51 0,-51 -5,-93 -13,-125 -9,-31 -20,-47 -36,-47 -9,0 -14,14 -14,43 0,5 0,10 0,16 1,5 2,11 2,18 -12,24 -34,36 -65,36 -36,0 -56,-16 -61,-47 -6,-37 5,-74 33,-111 30,-43 66,-65 107,-65 51,0 94,24 131,72 40,52 60,120 60,203zm-490 -21c0,75 -24,141 -71,199 -55,66 -128,98 -221,98 -29,0 -56,-4 -82,-14 -25,-9 -47,-22 -65,-40 -18,-17 -33,-38 -43,-62 -10,-24 -15,-51 -15,-81 0,-51 17,-96 53,-136 36,-42 75,-63 118,-63 38,0 69,9 92,28 23,18 38,44 45,75 0,17 -8,34 -24,49 -16,16 -34,24 -55,24 -6,0 -16,-2 -29,-7 -2,-8 -4,-16 -5,-22 -2,-7 -4,-12 -6,-17 -7,-19 -17,-28 -30,-28 -11,0 -20,8 -26,24 -6,17 -9,35 -9,56 0,9 1,20 3,34 2,13 12,27 28,42 14,15 33,22 58,22 40,0 74,-16 103,-48 30,-31 44,-72 44,-122 0,-40 -15,-73 -46,-101 -32,-27 -73,-40 -125,-40 -62,0 -115,15 -160,45 -44,29 -65,65 -65,108 0,2 0,6 0,9 1,4 1,8 2,13 4,20 -1,35 -13,47 -13,12 -30,18 -54,18 -14,0 -26,-5 -35,-15 -9,-10 -14,-24 -14,-42 0,-73 36,-141 108,-203 73,-62 156,-94 247,-94 91,0 164,27 219,80 49,47 73,102 73,164zm-652 -540l-2 197c-5,14 -16,26 -32,35 -17,10 -34,15 -53,15 -13,0 -23,-2 -30,-5 -17,-18 -40,-37 -67,-56 -27,-19 -61,-39 -101,-61 -76,-43 -119,-60 -131,-53 5,7 9,15 13,24 4,8 8,16 13,24 22,27 42,46 61,59 3,14 -1,28 -12,40 -11,12 -25,18 -43,18 -4,0 -14,-2 -29,-7 -47,-28 -87,-66 -120,-115 -35,-48 -52,-90 -52,-126 0,-12 2,-22 8,-29 10,-12 30,-18 60,-18 30,0 68,7 114,21 46,14 91,31 137,53l0 -20c0,-9 5,-17 15,-22 9,-6 21,-9 36,-9 13,0 25,3 37,8 12,5 18,12 20,20l0 87 39 33 5 -111c13,-24 33,-37 60,-37 30,0 47,12 54,35zm-414 641c-6,-2 -14,-2 -24,0 -11,2 -16,6 -16,11 0,12 8,25 25,40 7,-19 12,-36 15,-51zm415 -297c-4,24 -7,93 -8,206 -1,57 -2,106 -2,146 0,41 -1,75 -1,101 -4,12 -14,22 -29,29 -15,8 -31,11 -47,11 -10,0 -21,-2 -31,-5 -9,-4 -17,-10 -22,-18 -13,-25 -33,-50 -60,-76 -28,-26 -58,-48 -91,-65 -14,45 -34,83 -58,113 -24,31 -48,48 -72,51 -26,0 -56,-18 -92,-54 -42,-42 -63,-85 -63,-128 0,-42 15,-72 45,-91 30,-19 69,-28 117,-28l19 1c1,-9 3,-20 4,-32 1,-12 1,-26 1,-41 0,-14 -1,-25 -3,-34 -1,-9 -5,-13 -10,-13 -5,0 -10,2 -15,7 -5,4 -11,10 -15,17 -5,6 -9,13 -12,21 -4,7 -5,14 -5,19 0,6 1,10 4,13 -6,12 -15,21 -27,27 -11,6 -24,9 -39,9 -37,0 -60,-13 -69,-39 0,-30 20,-67 59,-111 43,-47 88,-71 135,-71 40,0 70,18 90,55 21,37 31,84 31,141l0 23 0 18c-1,4 -1,8 -2,11 0,3 0,5 0,7 24,8 48,19 72,32 24,13 44,26 61,39 0,-10 0,-26 -1,-49 0,-23 -1,-47 -2,-71 0,-24 -1,-47 -2,-69 0,-21 0,-36 0,-43 0,-36 2,-60 6,-72 5,-8 15,-16 30,-24 17,-7 32,-11 45,-11 18,0 33,4 44,12 12,8 17,20 15,36zm-581 324c0,24 -18,56 -53,96 -40,44 -78,66 -114,66 -43,0 -72,-13 -88,-39 -12,-18 -18,-45 -18,-81 2,-31 4,-58 6,-82 2,-24 3,-45 4,-63 3,-53 6,-98 7,-136 1,-38 2,-69 2,-92 2,-16 8,-28 20,-35 11,-8 24,-11 40,-11 15,0 29,3 40,9 12,6 19,14 23,24 0,52 -1,107 -4,167 -3,60 -5,128 -8,203 7,-2 15,-12 23,-28 6,-14 10,-24 12,-31 8,-11 22,-16 41,-16 17,0 32,4 45,13 13,9 20,21 22,36zm-453 -28c0,-12 -5,-16 -15,-13 0,3 -1,8 -1,15 0,17 2,26 5,26 8,0 11,-10 11,-28zm116 -7c0,45 -17,84 -53,119 -33,34 -70,52 -111,52 -20,0 -38,-12 -53,-34 -14,-22 -25,-53 -31,-92l-19 12c-4,4 -15,12 -32,25 -17,13 -40,32 -69,56 -13,11 -23,19 -30,25 -8,6 -14,11 -20,13 -5,3 -10,5 -14,6 -5,1 -10,1 -15,1 -19,0 -37,-6 -54,-19 -17,-13 -25,-29 -25,-47 0,-1 0,-2 1,-4 0,-3 1,-6 2,-11 4,-12 10,-28 16,-48 7,-19 14,-43 21,-70 19,-68 28,-119 28,-154 0,-26 -6,-39 -19,-39 -9,0 -18,9 -24,27 -7,18 -10,36 -10,53 0,1 1,5 2,12 -11,24 -32,35 -62,35 -32,0 -53,-13 -62,-39 0,-34 16,-74 47,-120 37,-53 77,-79 120,-79 46,0 78,20 98,60 17,32 25,77 25,134 0,13 0,24 -1,32 0,9 -1,18 -1,26 0,9 -2,18 -3,27 -2,9 -4,20 -7,32 14,-10 31,-21 49,-32 18,-11 36,-21 53,-29 0,-51 1,-103 4,-156 1,-27 3,-49 4,-64 0,-16 1,-28 2,-34 20,-17 43,-25 68,-25 17,0 32,5 44,14 12,10 18,23 18,39 -2,7 -4,18 -5,31 -1,14 -3,29 -4,45 -1,17 -2,34 -3,53 -1,19 -2,36 -2,53l14 0c40,0 69,10 87,30 17,19 26,47 26,84zm-851 -202c-19,-18 -45,-27 -77,-27 -56,0 -101,26 -135,79 -28,43 -41,88 -41,136 0,24 1,45 3,61 2,17 6,26 13,26 6,0 34,-47 85,-141 53,-94 96,-141 131,-141 11,2 18,4 21,7zm190 371c-5,13 -14,24 -27,31 -12,8 -26,11 -41,11 -12,0 -23,-2 -31,-6 -9,-4 -16,-12 -21,-23 10,-43 15,-88 15,-135 0,-39 -4,-75 -10,-109 -7,-34 -18,-64 -32,-90 3,11 4,20 4,28 0,2 0,5 0,9 -1,3 -2,8 -3,12l-9 0c-6,1 -12,4 -17,9 -30,46 -56,86 -79,121 -23,35 -45,64 -64,88 -20,24 -38,42 -55,54 -17,12 -33,19 -49,19 -48,0 -86,-16 -114,-47 -30,-32 -45,-80 -45,-146 0,-70 23,-137 69,-203 59,-84 138,-126 237,-126 86,0 157,33 213,98 56,67 84,149 84,247 0,55 -8,108 -25,158zm-1994 -53c1,5 1,8 2,11 0,3 0,5 0,7 0,19 -7,35 -22,47 -14,13 -31,19 -50,19 -1,0 -2,0 -5,-1 -3,0 -6,-1 -11,-2 -18,-16 -36,-35 -53,-56 -12,-13 -22,-27 -32,-41 -10,-15 -20,-30 -30,-46 -15,13 -30,27 -46,40 -16,14 -33,27 -51,40 -36,26 -65,45 -87,56 -7,3 -14,5 -20,5 -10,0 -20,-2 -29,-6 -10,-4 -19,-9 -27,-15 -8,-6 -15,-13 -20,-22 -4,-8 -7,-17 -7,-26 0,-1 0,-3 1,-5 0,-2 1,-6 2,-11 3,-8 7,-21 12,-40 4,-18 9,-41 13,-69 11,-56 16,-105 16,-146 0,-21 -2,-38 -5,-51 -4,-12 -10,-19 -19,-19 -4,0 -8,3 -11,10 -2,7 -4,15 -4,24 0,11 2,22 4,33 3,12 7,20 11,24 -13,27 -35,41 -67,41 -34,0 -55,-15 -62,-45 0,-44 11,-86 33,-126 28,-48 63,-72 107,-72 47,0 81,25 103,73 17,36 25,87 25,155 0,17 -1,36 -3,57 -1,21 -3,38 -5,53 21,-17 38,-30 50,-41 12,-11 23,-22 33,-34 -11,-32 -16,-65 -16,-99 0,-42 11,-82 35,-120 27,-43 62,-65 104,-65 30,0 54,12 73,36 18,24 27,52 27,85 0,31 -7,61 -21,90 -14,30 -32,59 -54,88 7,15 15,30 24,46 9,15 19,32 31,49 7,11 15,22 23,33 9,12 18,24 28,36zm-135 -332c1,-3 1,-8 1,-16 0,-6 -1,-10 -3,-12 -2,-1 -6,1 -10,7 -4,5 -6,11 -8,18 -1,3 -2,11 -2,24 0,12 1,19 2,19 9,-11 15,-24 20,-40zm582 158c0,83 -20,151 -60,202 -36,46 -78,69 -128,69 -24,0 -44,-6 -60,-17 -16,-11 -26,-26 -30,-44 -3,-17 0,-33 11,-48 11,-14 25,-23 41,-27 7,4 15,5 25,5 19,0 35,-13 48,-39 13,-26 20,-57 20,-92 0,-41 -10,-76 -28,-106 -22,-33 -52,-50 -90,-50 -25,0 -43,12 -53,36 -11,25 -16,55 -16,90l0 24c0,7 0,13 1,15 -11,19 -30,28 -57,28 -18,0 -34,-4 -49,-13 -14,-9 -22,-20 -24,-34 -1,-8 -1,-14 -2,-19 0,-5 0,-10 0,-13 0,-54 18,-104 56,-152 38,-48 84,-73 136,-73 81,0 146,27 194,82 43,48 65,107 65,176zm919 -101c0,53 -14,118 -41,195 -5,16 -13,36 -23,60 -10,24 -22,52 -36,85 -5,9 -14,16 -25,22 -12,6 -24,8 -38,8 -33,0 -54,-8 -62,-25 -10,-46 -24,-95 -41,-147 -26,-75 -55,-125 -85,-151 -3,-2 -8,-4 -16,-5 -8,-1 -16,-1 -24,-1l-8 0c3,-14 10,-27 19,-39 8,-11 19,-21 30,-30 12,-8 24,-15 38,-19 13,-5 26,-7 40,-7 10,0 19,1 25,5 22,25 42,55 60,93 12,25 21,53 28,82 2,-5 4,-12 6,-21 3,-9 5,-20 8,-32 5,-25 8,-41 8,-49 0,-29 -11,-51 -32,-66 -21,-16 -50,-24 -89,-24 -49,0 -94,13 -134,40 -15,10 -29,20 -42,30 -13,11 -27,21 -40,31 -12,10 -24,14 -39,14 -9,0 -18,-2 -26,-6 -9,-4 -17,-10 -24,-16 -8,-7 -13,-14 -18,-23 -4,-9 -6,-18 -6,-26 0,-1 0,-3 0,-5 1,-2 1,-6 2,-11 36,-34 75,-62 116,-84 71,-35 140,-53 209,-53 81,0 144,15 191,46 46,30 69,73 69,129zm-535 208c0,24 -18,56 -54,96 -39,44 -77,66 -113,66 -43,0 -72,-13 -86,-39 -10,-19 -15,-47 -15,-84 2,-23 4,-48 5,-74 1,-25 3,-53 5,-82 2,-30 4,-67 7,-111 3,-44 7,-97 10,-156 4,-62 6,-110 8,-145 2,-34 3,-57 3,-67 0,-33 -2,-54 -7,-64 -4,-10 -14,-14 -29,-14 -31,0 -67,17 -108,53 -41,34 -62,63 -62,87 0,8 5,12 16,12 14,0 33,-7 56,-21 23,-16 40,-31 50,-46 6,-4 14,-6 24,-6 14,0 26,5 36,14 10,10 13,22 9,37 -15,28 -42,55 -80,80 -46,32 -97,47 -152,47 -35,0 -59,-7 -73,-21 -14,-15 -21,-34 -21,-58 0,-8 1,-15 2,-23 -21,-2 -43,-3 -66,-3 -63,0 -146,9 -247,26 -104,16 -169,25 -195,25 -37,0 -68,-7 -92,-21 -23,-14 -35,-36 -35,-66 0,-55 10,-99 29,-131 12,-12 28,-18 50,-18 21,0 42,6 62,18 20,13 32,27 35,43 -6,0 -12,1 -18,2 -7,1 -11,4 -15,9 -7,10 -11,20 -11,29 0,7 4,11 11,13 7,2 16,3 28,3 18,0 41,-1 69,-3 29,-2 63,-5 103,-9 40,-3 75,-6 105,-8 30,-2 55,-3 76,-3 34,0 65,2 93,4 16,2 34,5 51,9 17,-26 39,-53 67,-82 72,-75 148,-113 229,-113 41,0 72,13 96,38 24,25 35,66 35,122 0,20 0,48 -2,83 -1,35 -2,74 -4,117 -2,43 -4,89 -7,137 -3,48 -5,95 -8,142 -2,49 -3,88 -5,117 -1,30 -2,49 -2,60 5,-4 10,-12 17,-23 7,-12 11,-22 11,-30 8,-12 22,-17 42,-17 17,0 32,4 45,13 12,9 20,21 22,36z"/>
  <g style="clip-path:url(#id2)">
   <image x="9167" y="12677" width="5875" height="1728" xlink:href="โลโก้แนวนอน_Images\โลโก้แนวนอน_ImgID3.png"/>
  </g>
  <path class="fil7" d="M14658 12755l163 99c-38,22 -53,65 -53,122l-202 0c-6,-87 27,-160 92,-221zm-507 575c-31,34 -68,64 -113,87 -25,-87 -65,-137 -111,-171l156 -141 68 74 0 -66 181 0 0 213 324 -220 6 8c277,203 276,642 118,962l-132 -136c64,-122 72,-477 -25,-606l-291 198 0 545 -181 0 0 -747zm-2129 -217l0 748c0,47 -10,82 -52,105l137 111c56,-16 95,-53 95,-118l0 -678 176 0c141,18 171,121 174,296 -9,182 -39,298 -133,368l83 131c180,-133 230,-278 230,-490 -5,-354 -119,-472 -409,-471l-301 -2zm1072 -86l0 -167 -493 0c-51,1 -89,-8 -114,-47l-121 126c17,51 58,88 128,88l600 0zm-261 86l180 0 0 2 78 0c290,-1 404,117 410,471 -10,123 -29,233 -73,323l170 0c86,-287 82,-595 -39,-791l189 -3c124,187 115,503 36,794l118 0 0 166 -632 1 -83 -131c94,-70 124,-186 133,-368 -3,-175 -32,-278 -174,-296l-133 0 0 580c0,47 9,82 51,105l-136 111c-56,-16 -95,-53 -95,-118l0 -846zm-1931 0l180 0 0 2 78 0c290,-1 404,117 409,471 -9,123 -28,234 -73,324l170 0c87,-287 83,-596 -38,-792l188 -3c176,265 86,789 -95,1133l-209 0c35,-54 66,-112 92,-172l-265 0 -84 -131c95,-70 124,-186 134,-368 -3,-175 -33,-278 -174,-296l-133 0 0 580c-1,47 9,82 51,105l-136 111c-56,-16 -96,-53 -95,-118l0 -846zm-710 -83l0 -166 676 1 0 165 -676 0zm514 871c-143,-6 -271,-96 -274,-324 3,-197 93,-296 271,-296l128 0 1 -166 -171 0c-242,-1 -404,117 -410,471 -3,291 166,456 456,493l-1 -178zm-1099 175l0 -440c1,-47 -9,-82 -51,-105l137 -112c56,16 95,54 95,119l0 352c143,-7 232,-85 235,-313 -4,-197 -93,-296 -271,-296l-238 0 0 -166 280 0c241,-1 404,117 409,471 5,339 -208,491 -596,490zm-374 -963l180 0 0 748c0,47 10,82 52,105l-137 111c-56,-16 -95,-53 -95,-118l0 -846z"/>
  <g style="clip-path:url(#id3)">
   <image x="9186" y="14449" width="5826" height="991" xlink:href="โลโก้แนวนอน_Images\โลโก้แนวนอน_ImgID4.png"/>
  </g>
  <path class="fil8" d="M9184 14487l5692 0 0 848 -5692 0 0 -848zm273 602c49,0 86,-15 109,-45 24,-31 36,-79 36,-144 0,-59 -13,-106 -39,-139 -26,-33 -61,-50 -107,-50l-59 0 0 378 60 0zm5 99l-155 0 0 -575 153 0c41,0 75,6 100,16 24,11 47,28 67,53 22,26 38,58 49,96 11,37 17,79 17,125 0,52 -8,99 -23,140 -16,41 -38,75 -68,102 -17,15 -35,26 -56,33 -21,7 -49,10 -84,10zm532 0l-247 0 0 -575 247 0 0 101 -158 0 0 131 158 0 0 100 -158 0 0 142 158 0 0 101zm164 -318l24 0c25,0 44,-6 57,-20 14,-14 20,-33 20,-58 0,-26 -6,-46 -19,-58 -13,-13 -32,-20 -59,-20l-23 0 0 156zm0 318l-89 0 0 -575 114 0c29,0 51,2 68,6 17,4 30,11 40,19 19,16 34,38 45,64 11,26 16,54 16,84 0,55 -15,99 -43,132 -29,33 -68,49 -117,49l-34 0 0 221zm422 -227l-54 -185 -55 185 109 0zm-140 107l-36 120 -92 0 177 -575 77 0 175 575 -96 0 -36 -120 -169 0zm410 -175l20 0c36,0 64,-8 82,-25 19,-16 28,-40 28,-72 0,-30 -7,-53 -23,-67 -16,-15 -40,-22 -74,-22l-33 0 0 186zm0 295l-89 0 0 -575 108 0c35,0 61,2 77,5 17,3 32,8 44,15 25,15 45,36 59,64 14,27 20,59 20,96 0,44 -9,82 -29,113 -19,31 -46,51 -79,59l114 223 -107 0 -118 -267 0 267zm504 -575l0 101 -86 0 0 474 -90 0 0 -474 -86 0 0 -101 262 0zm130 575l-88 0 0 -575 118 0 116 418 116 -418 119 0 0 575 -89 0 3 -417 -115 417 -68 0 -115 -417 3 417zm703 0l-246 0 0 -575 246 0 0 101 -158 0 0 131 158 0 0 100 -158 0 0 142 158 0 0 101zm163 0l-88 0 0 -575 85 0 189 367 0 -367 87 0 0 575 -83 0 -190 -378 0 378zm577 -575l0 101 -86 0 0 474 -89 0 0 -474 -86 0 0 -101 261 0zm15 397l81 -1 0 9c0,24 5,43 16,58 10,14 23,22 40,22 18,0 32,-7 42,-21 11,-13 16,-32 16,-55 0,-37 -21,-63 -63,-79 -6,-3 -10,-4 -13,-6 -36,-14 -62,-33 -79,-59 -18,-26 -26,-58 -26,-97 0,-54 12,-97 36,-130 23,-33 55,-49 94,-49 38,0 67,15 89,44 22,29 34,69 37,122l-81 0 0 -5c0,-19 -5,-33 -13,-45 -9,-11 -21,-17 -35,-17 -15,0 -26,6 -35,18 -8,11 -12,27 -12,47 0,8 0,16 2,22 2,7 5,13 9,18 8,12 27,23 55,33 12,4 22,7 29,10 31,14 54,33 69,58 15,25 23,57 23,96 0,59 -13,107 -39,142 -27,36 -61,54 -105,54 -41,0 -73,-17 -99,-52 -25,-34 -38,-80 -38,-137zm563 -397l0 101 -86 0 0 474 -90 0 0 -474 -86 0 0 -101 262 0zm116 283c0,24 3,47 9,69 7,21 16,40 29,58 14,19 30,34 48,44 18,11 36,16 55,16 40,0 74,-18 101,-54 27,-35 40,-80 40,-133 0,-49 -13,-91 -40,-126 -28,-34 -61,-52 -99,-52 -40,0 -74,18 -102,52 -28,35 -41,76 -41,126zm-94 3c0,-31 3,-61 10,-89 6,-28 16,-54 30,-79 22,-41 51,-73 85,-95 34,-23 71,-34 111,-34 31,0 60,7 88,22 28,15 54,36 76,64 23,28 40,60 52,96 12,36 18,74 18,113 0,41 -6,80 -17,116 -11,36 -28,68 -50,96 -22,29 -47,51 -76,67 -30,16 -60,23 -92,23 -34,0 -65,-7 -94,-23 -29,-15 -54,-37 -76,-67 -22,-29 -38,-61 -49,-96 -11,-35 -16,-73 -16,-114zm615 -6l20 0c36,0 64,-8 83,-25 18,-16 28,-40 28,-72 0,-30 -8,-53 -24,-67 -15,-15 -40,-22 -73,-22l-34 0 0 186zm0 295l-89 0 0 -575 109 0c34,0 60,2 77,5 17,3 31,8 43,15 26,15 46,36 59,64 14,27 21,59 21,96 0,44 -10,82 -30,113 -19,31 -46,51 -79,59l114 223 -107 0 -118 -267 0 267zm524 0l-247 0 0 -575 247 0 0 101 -159 0 0 131 159 0 0 100 -159 0 0 142 159 0 0 101z"/>
 </g>
</svg>
