<?xml version="1.0" encoding="UTF-8"?>
<!DOCTYPE svg PUBLIC "-//W3C//DTD SVG 1.1//EN" "http://www.w3.org/Graphics/SVG/1.1/DTD/svg11.dtd">
<!-- Creator: CorelDRAW X8 -->
<svg xmlns="http://www.w3.org/2000/svg" xml:space="preserve" width="210mm" height="297mm" version="1.1" style="shape-rendering:geometricPrecision; text-rendering:geometricPrecision; image-rendering:optimizeQuality; fill-rule:evenodd; clip-rule:evenodd"
viewBox="0 0 21000 29700"
 xmlns:xlink="http://www.w3.org/1999/xlink">
 <defs>
  <style type="text/css">
   <![CDATA[
    .fil0 {fill:url(#id4)}
    .fil6 {fill:url(#id5)}
    .fil4 {fill:url(#id6)}
    .fil1 {fill:url(#id7)}
    .fil2 {fill:url(#id8)}
    .fil3 {fill:url(#id9)}
    .fil5 {fill:url(#id10)}
   ]]>
  </style>
   <clipPath id="id0">
    <rect x="6908" y="12765" width="6797" height="2000"/>
   </clipPath>
   <clipPath id="id1">
    <path d="M8008 8091l4668 -49 0 4633 -4668 49 0 -4633z"/>
   </clipPath>
   <clipPath id="id2">
    <rect x="7923" y="14932" width="4718" height="1175"/>
   </clipPath>
   <clipPath id="id3">
    <rect x="7332" y="16332" width="5897" height="1175"/>
   </clipPath>
  <linearGradient id="id4" gradientUnits="userSpaceOnUse" x1="10143" y1="8820.4" x2="10295.2" y2="16778.3">
   <stop offset="0" style="stop-opacity:1; stop-color:#FEFEFE"/>
   <stop offset="1" style="stop-opacity:1; stop-color:#FEFEFE"/>
  </linearGradient>
  <linearGradient id="id5" gradientUnits="userSpaceOnUse" x1="14845.3" y1="16000" x2="14878.7" y2="17856.4">
   <stop offset="0" style="stop-opacity:1; stop-color:#B36D15"/>
   <stop offset="0.509804" style="stop-opacity:1; stop-color:#F6F181"/>
   <stop offset="1" style="stop-opacity:1; stop-color:#B67A17"/>
  </linearGradient>
  <linearGradient id="id6" gradientUnits="userSpaceOnUse" x1="8850.05" y1="11694" x2="12185.1" y2="8376.8">
   <stop offset="0" style="stop-opacity:1; stop-color:#8E6338"/>
   <stop offset="0.121569" style="stop-opacity:1; stop-color:#FACD54"/>
   <stop offset="0.25098" style="stop-opacity:1; stop-color:#DAB96B"/>
   <stop offset="0.380392" style="stop-opacity:1; stop-color:#FFF9B1"/>
   <stop offset="0.521569" style="stop-opacity:1; stop-color:#DAB96B"/>
   <stop offset="0.65098" style="stop-opacity:1; stop-color:#F6CC5C"/>
   <stop offset="0.74902" style="stop-opacity:1; stop-color:#DAB96B"/>
   <stop offset="0.858824" style="stop-opacity:1; stop-color:#FFF9B1"/>
   <stop offset="1" style="stop-opacity:1; stop-color:#663333"/>
  </linearGradient>
  <linearGradient id="id7" gradientUnits="userSpaceOnUse" x1="15760.8" y1="9187.96" x2="15921.9" y2="17611.6">
   <stop offset="0" style="stop-opacity:1; stop-color:#009B4C"/>
   <stop offset="1" style="stop-opacity:1; stop-color:#0E5C40"/>
  </linearGradient>
  <linearGradient id="id8" gradientUnits="userSpaceOnUse" xlink:href="#id7" x1="15092.2" y1="9517.97" x2="15233.8" y2="17171.9">
  </linearGradient>
  <linearGradient id="id9" gradientUnits="userSpaceOnUse" x1="7060.85" y1="11355.4" x2="13397.2" y2="15030.1">
   <stop offset="0" style="stop-opacity:1; stop-color:#B36D15"/>
   <stop offset="0.368627" style="stop-opacity:1; stop-color:#F6F181"/>
   <stop offset="0.490196" style="stop-opacity:1; stop-color:#FFFCDB"/>
   <stop offset="0.588235" style="stop-opacity:1; stop-color:#F6F181"/>
   <stop offset="1" style="stop-opacity:1; stop-color:#B67A17"/>
  </linearGradient>
  <linearGradient id="id10" gradientUnits="userSpaceOnUse" xlink:href="#id5" x1="20097.4" y1="14599.7" x2="20130.9" y2="16456">
  </linearGradient>
 </defs>
 <g id="Layer_x0020_1">
  <metadata id="CorelCorpID_0Corel-Layer"/>
  <path class="fil0" d="M5787 7031l8864 0 0 11537 -8864 0 0 -11537zm799 799l0 9939 7266 0 0 -9939 -7266 0z"/>
  <path class="fil1" d="M6047 7290l8345 0 0 11018 -8345 0 0 -11018zm279 280l7786 0 0 10459 -7786 0 0 -10459z"/>
  <polygon class="fil2" points="6550,7794 13888,7794 13888,17805 6550,17805 "/>
  <g style="clip-path:url(#id0)">
   <image x="6908" y="12765" width="6797" height="2000" xlink:href="โลโก้ แนวตั้ง_Images\โลโก้ แนวตั้ง_ImgID1.png"/>
  </g>
  <path class="fil3" d="M13260 12855l188 115c-44,26 -62,75 -62,141l-233 0c-7,-101 31,-185 107,-256zm-587 665c-36,41 -79,75 -131,101 -29,-100 -75,-158 -128,-198l180 -163 79 86 0 -76 209 0 0 246 375 -254 7 9c321,234 319,742 137,1112l-153 -157c74,-141 83,-552 -29,-701l-337 229 0 631 -209 -1 0 -864zm-2464 -250l0 865c1,54 -10,94 -59,121l158 129c65,-18 110,-61 110,-137l0 -784 204 0c163,21 197,140 201,343 -11,210 -45,344 -154,426l96 150c208,-153 267,-321 267,-567 -6,-409 -138,-546 -474,-545l-349 -1zm1241 -100l0 -193 -571 0c-59,1 -102,-10 -131,-54l-140 145c20,60 66,102 148,102l694 0zm-302 100l209 0 0 1 90 0c336,-1 468,136 474,545 -11,143 -34,271 -85,374l197 0c100,-332 95,-688 -45,-914l218 -5c144,217 134,583 42,920l137 0 0 191 -731 1 -97 -150c110,-82 144,-216 155,-426 -4,-203 -38,-322 -202,-343l-153 0 0 671c-1,54 10,94 59,121l-158 129c-65,-18 -110,-61 -110,-137l0 -978zm-2234 0l208 0 0 1 90 0c336,-1 468,136 474,545 -10,143 -33,272 -84,375l196 0c100,-332 96,-689 -44,-915l218 -5c203,308 99,914 -111,1312l-241 0c40,-63 76,-130 107,-200l-308 0 -96 -150c110,-82 144,-216 155,-426 -4,-203 -38,-322 -202,-343l-154 0 0 671c0,54 11,94 60,121l-158 129c-65,-18 -111,-61 -110,-137l0 -978zm-821 -96l0 -192 782 0 0 192 -782 0zm595 1008c-166,-8 -314,-112 -318,-375 4,-229 108,-343 314,-343l148 0 1 -193 -197 0c-280,-1 -468,136 -474,545 -5,338 191,529 526,571l0 -205zm-1271 201l0 -509c0,-54 -11,-94 -60,-121l158 -129c65,18 111,62 110,137l0 407c166,-7 269,-98 272,-361 -4,-229 -108,-343 -313,-343l-275 0 0 -193 323 0c280,-1 468,136 474,545 5,393 -241,569 -689,567zm-433 -1113l208 0 0 865c0,54 11,94 59,121l-157 129c-65,-18 -111,-61 -110,-137l0 -978z"/>
  <g style="clip-path:url(#id1)">
   <image x="8008" y="8042" width="4668" height="4682" xlink:href="โลโก้ แนวตั้ง_Images\โลโก้ แนวตั้ง_ImgID2.png"/>
  </g>
  <path class="fil4" d="M11802 11274l-4 6 -3 6 -4 5 -4 6 -4 6 -4 6 -4 5 -4 6 -4 6 -4 5 -4 6 -4 6 -4 5 -4 6 -4 6 -4 5 -5 6 -4 5 -4 6 -4 5 -4 6 -5 5 -4 6 -4 5 -4 6 -5 5 -4 5 -4 6 -5 5 -4 6 -5 5 -4 5 -15 5 -14 4 -15 3 -14 3 -15 3 -15 2 -14 2 -15 1 -14 1 -15 0 -15 0 -14 -1 -15 -1 -15 -1 -14 -2 -15 -3 -15 -3 -14 -3 -15 -4 -15 -4 -14 -5 -15 -5 -15 -6 -14 -6 -15 -7 -15 -7 -15 -7 -14 -8 -15 -8 -15 -9 -15 -9 -14 -10 -20 13 -20 12 -20 12 -20 10 -20 10 -20 9 -20 8 -20 7 -20 7 -20 5 -20 5 -20 4 -20 3 -20 2 -20 2 -19 0 -20 0 -20 -1 -20 -2 -20 -3 -20 -4 -19 -5 -20 -5 -20 -7 -20 -7 -19 -8 -20 -9 -20 -10 -20 -10 -19 -12 -20 -12 -20 -14 -19 14 -20 12 -20 12 -20 10 -19 10 -20 9 -20 8 -20 7 -19 7 -20 5 -20 5 -20 4 -19 3 -20 2 -20 1 -20 0 -20 0 -20 -2 -20 -2 -20 -3 -19 -4 -20 -5 -20 -5 -20 -7 -20 -7 -20 -8 -20 -9 -20 -10 -20 -10 -20 -12 -20 -12 -20 -13 -20 13 -20 12 -20 12 -20 10 -20 10 -20 9 -20 8 -20 7 -20 7 -20 5 -20 5 -20 4 -20 3 -19 2 -20 2 -20 0 -20 0 -20 -1 -20 -2 -20 -3 -19 -4 -20 -5 -20 -5 -20 -7 -19 -7 -20 -8 -20 -9 -20 -10 -19 -10 -20 -12 -20 -12 -19 -14 -18 12 -18 12 -18 11 -18 10 -18 9 -18 8 -18 8 -18 7 -18 7 -18 5 -18 5 -18 5 -18 3 -18 3 -18 2 -18 1 -19 1 -18 0 -18 -1 -18 -1 -18 -2 -18 -3 -18 -4 -18 -4 -18 -5 -19 -6 -18 -6 -18 -7 -18 -8 -18 -8 -19 -9 -18 -10 -6 -8 -6 -8 -6 -7 -6 -8 -6 -8 -5 -8 -6 -8 -6 -8 -6 -8 -5 -8 -6 -8 -6 -8 -5 -9 -6 -8 -5 -8 -6 -8 5 -3 4 -2 4 -3 5 -3 4 -2 4 -3 5 -3 4 -2 20 12 20 12 20 11 20 10 20 9 20 9 20 7 20 7 20 7 20 5 20 4 20 4 20 3 19 2 20 2 20 0 20 0 20 -1 20 -2 20 -3 19 -3 20 -5 20 -5 20 -6 19 -7 20 -8 20 -8 20 -10 19 -10 20 -11 20 -12 20 -13 19 13 20 12 20 11 19 10 20 10 20 8 20 8 19 7 20 6 20 5 20 5 19 3 20 3 20 2 20 1 20 0 20 0 20 -2 19 -2 20 -3 20 -4 20 -4 20 -5 20 -7 20 -7 20 -7 20 -9 20 -9 20 -10 20 -11 20 -12 20 -12 20 12 20 12 20 11 20 10 20 9 20 9 20 7 20 7 20 7 20 5 20 4 19 4 20 3 20 2 20 2 20 0 20 0 20 -1 20 -2 19 -3 20 -3 20 -5 20 -5 19 -6 20 -7 20 -8 20 -8 19 -10 20 -10 20 -11 20 -12 19 -13 20 13 20 12 19 11 20 10 20 10 20 8 19 8 20 7 20 6 20 5 19 5 20 3 20 3 20 2 20 1 20 0 19 0 20 -2 20 -2 20 -3 20 -4 20 -4 20 -5 20 -7 20 -7 20 -7 20 -9 20 -9 20 -10 20 -11 20 -12 20 -12 19 11 19 12 18 10 19 10 19 9 19 8 19 8 19 6 19 7 19 5 19 5 18 4 19 3 19 3 19 2 19 1 19 0 18 0 19 -1 19 -2 19 -2 18 -4 19 -4 19 -5 19 -5 18 -6 19 -7 19 -8 18 -9 19 -9 19 -10 18 -11zm198 -393l-5 -2 -5 -1 -6 -2 -5 -2 -5 -2 -5 -2 -5 -2 -5 -2 -5 -2 -5 -2 -6 -2 -5 -2 -5 -3 -5 -2 -5 -3 -5 -2 -5 -3 -5 -2 -6 -3 -5 -3 -5 -2 -5 -3 -5 -3 -5 -3 -5 -3 -5 -3 -5 -3 -6 -4 -5 -3 -5 -3 -5 -4 -5 -3 -20 13 -19 12 -20 11 -20 10 -19 10 -20 9 -20 7 -20 7 -20 6 -19 6 -20 4 -20 4 -20 2 -20 2 -19 1 -20 1 -20 -1 -20 -1 -20 -2 -20 -3 -20 -4 -20 -5 -20 -5 -19 -6 -20 -7 -20 -8 -20 -9 -20 -9 -20 -10 -20 -11 -20 -12 -20 -12 -20 12 -20 12 -20 11 -20 10 -20 9 -20 9 -20 8 -20 7 -20 6 -20 5 -20 5 -20 4 -20 3 -20 2 -20 1 -19 1 -20 -1 -20 -1 -20 -2 -20 -2 -20 -4 -19 -4 -20 -6 -20 -6 -20 -7 -19 -7 -20 -9 -20 -10 -20 -10 -19 -11 -20 -12 -20 -13 -19 13 -20 12 -20 11 -20 10 -19 10 -20 9 -20 7 -20 7 -19 6 -20 6 -20 4 -20 4 -19 2 -20 2 -20 1 -20 1 -20 -1 -20 -1 -20 -2 -20 -3 -19 -4 -20 -5 -20 -5 -20 -6 -20 -7 -20 -8 -20 -9 -20 -9 -20 -10 -20 -11 -20 -12 -20 -12 -20 12 -20 12 -20 11 -20 10 -20 9 -20 9 -20 8 -20 7 -20 6 -20 5 -20 5 -20 4 -20 3 -19 2 -20 1 -20 1 -20 -1 -20 -1 -20 -2 -20 -2 -19 -4 -20 -4 -20 -6 -20 -6 -19 -7 -20 -7 -20 -9 -20 -10 -19 -10 -20 -11 -20 -12 -19 -13 -20 13 -20 12 -20 11 -19 10 -20 10 -20 9 -20 7 -19 7 -20 6 -20 6 -20 4 -19 4 -20 2 -20 2 -20 1 -20 1 -20 -1 -20 -1 -19 -2 -20 -3 -20 -4 -20 -5 -20 -5 -20 -6 -20 -7 -20 -8 -20 -9 -20 -9 -20 -10 -20 -11 -20 -12 -20 -12 -7 4 -7 5 -7 4 -7 4 -7 5 -7 4 -8 3 -7 4 -7 4 -7 4 -7 3 -7 4 -7 3 -7 3 -7 3 -7 3 -8 3 -7 3 -7 3 -7 2 -7 3 -7 2 -7 3 -7 2 -7 2 -7 2 -7 2 -7 2 -7 2 -8 1 -7 2 -7 1 2 5 2 5 2 5 2 5 2 5 2 5 2 5 2 5 2 5 2 5 2 5 2 5 2 5 2 5 2 5 2 5 2 5 2 4 2 5 2 5 3 5 2 5 2 5 2 5 2 5 2 4 3 5 2 5 2 5 2 5 3 4 2 5 5 -2 5 -1 5 -2 5 -2 5 -2 5 -2 5 -2 5 -2 5 -2 5 -2 5 -3 5 -2 5 -2 5 -3 5 -2 5 -3 5 -2 5 -3 5 -3 5 -2 5 -3 5 -3 5 -3 5 -3 5 -3 5 -3 5 -3 5 -3 5 -3 5 -3 5 -4 5 -3 20 13 20 12 20 12 20 10 20 10 20 9 20 8 20 7 20 7 20 5 20 5 20 4 20 3 19 2 20 2 20 0 20 0 20 -1 20 -2 20 -3 19 -4 20 -5 20 -5 20 -7 19 -7 20 -8 20 -9 20 -10 19 -10 20 -12 20 -12 20 -14 19 14 20 12 20 12 19 10 20 10 20 9 20 8 19 7 20 7 20 5 20 5 19 4 20 3 20 2 20 1 20 0 20 0 20 -2 19 -2 20 -3 20 -4 20 -5 20 -5 20 -7 20 -7 20 -8 20 -9 20 -10 20 -10 20 -12 20 -12 20 -13 20 13 20 12 20 12 20 10 20 10 20 9 20 8 20 7 20 7 20 5 20 5 19 4 20 3 20 2 20 2 20 0 20 0 20 -1 20 -2 19 -3 20 -4 20 -5 20 -5 19 -7 20 -7 20 -8 20 -9 19 -10 20 -10 20 -12 20 -12 19 -14 20 14 20 12 19 12 20 10 20 10 20 9 19 8 20 7 20 7 20 5 19 5 20 4 20 3 20 2 20 1 20 0 19 0 20 -2 20 -2 20 -3 20 -4 20 -5 20 -5 20 -7 20 -7 20 -8 20 -9 20 -10 20 -10 20 -12 20 -12 20 -13 20 13 20 12 20 12 20 10 20 10 20 9 20 8 20 7 19 7 20 5 20 5 20 4 20 3 20 2 20 2 20 0 20 0 19 -1 20 -2 20 -3 20 -4 20 -5 19 -5 20 -7 20 -7 20 -8 20 -9 19 -10 20 -10 20 -12 19 -12 20 -14 6 5 7 4 6 4 6 4 7 4 6 4 7 4 6 4 6 4 7 3 6 4 6 3 7 3 6 4 6 3 7 3 2 -5 2 -4 2 -5 2 -5 2 -4 2 -5 2 -4 3 -5 2 -5 2 -4 2 -5 2 -5 2 -4 1 -5 2 -5 2 -4 2 -5 2 -5 2 -4 2 -5 2 -5 2 -4 2 -5 1 -5 2 -5 2 -4 2 -5 2 -5 1 -5 2 -4 2 -5 2 -5zm-3605 -95l9 -1 8 -1 8 -1 8 -2 9 -1 8 -2 8 -2 8 -2 8 -3 9 -2 8 -2 8 -3 8 -3 9 -3 8 -3 8 -3 8 -4 9 -3 8 -4 8 -3 8 -4 9 -4 8 -5 8 -4 8 -4 9 -5 8 -5 8 -5 8 -5 9 -5 8 -5 8 -6 20 13 20 12 20 12 20 10 20 10 20 9 20 8 20 7 20 7 20 5 20 5 20 4 20 3 19 2 20 2 20 0 20 0 20 -1 20 -2 20 -3 19 -4 20 -5 20 -5 20 -7 19 -7 20 -8 20 -9 20 -10 19 -10 20 -12 20 -12 20 -14 19 14 20 12 20 12 19 10 20 10 20 9 20 8 19 7 20 7 20 5 20 5 19 4 20 3 20 2 20 1 20 0 20 0 20 -2 19 -2 20 -3 20 -4 20 -5 20 -5 20 -7 20 -7 20 -8 20 -9 20 -10 20 -10 20 -12 20 -12 20 -13 20 13 20 12 20 12 20 10 20 10 20 9 20 8 20 7 20 7 20 5 20 5 19 4 20 3 20 2 20 2 20 0 20 0 20 -1 20 -2 19 -3 20 -4 20 -5 20 -5 19 -7 20 -7 20 -8 20 -9 19 -10 20 -10 20 -12 20 -12 19 -14 20 14 20 12 19 12 20 10 20 10 20 9 19 8 20 7 20 7 20 5 19 5 20 4 20 3 20 2 20 1 20 0 19 0 20 -2 20 -2 20 -3 20 -4 20 -5 20 -5 20 -7 20 -7 20 -8 20 -9 20 -10 20 -10 20 -12 20 -12 20 -13 20 13 20 12 20 12 20 10 20 10 20 9 20 8 20 7 19 7 20 5 20 5 20 4 20 3 20 2 20 2 20 0 20 0 19 -1 20 -2 20 -3 20 -4 20 -5 19 -5 20 -7 20 -7 20 -8 20 -9 19 -10 20 -10 20 -12 19 -12 20 -14 6 4 6 5 7 4 6 4 6 4 6 4 6 3 7 4 6 4 6 3 6 4 6 3 7 3 6 3 6 4 6 2 6 3 7 3 6 3 6 3 6 2 6 3 7 2 6 2 6 3 6 2 6 2 7 2 6 2 6 1 6 2 7 2 4 -17 5 -16 4 -16 5 -16 4 -17 4 -16 4 -16 3 -17 4 -16 4 -17 3 -17 3 -16 3 -17 3 -17 3 -17 2 -17 3 -17 2 -17 2 -17 2 -17 2 -17 1 -17 2 -17 1 -18 1 -17 1 -17 1 -18 1 -17 1 -18 0 -17 0 -18 0 -17 -2 -98 -7 -96 -13 -95 -16 -93 -22 -92 -25 -90 -30 -88 -34 -87 -38 -84 -43 -82 -45 -79 -50 -77 -53 -75 -56 -72 -60 -69 -63 -66 -66 -63 -69 -59 -72 -57 -75 -53 -77 -49 -79 -46 -82 -42 -84 -38 -86 -34 -89 -30 -90 -26 -92 -21 -93 -17 -95 -12 -96 -8 -98 -2 -97 2 -96 8 -95 12 -94 17 -91 21 -91 26 -88 30 -86 34 -84 38 -82 42 -80 46 -77 49 -74 53 -72 57 -69 59 -66 63 -63 66 -60 69 -56 72 -53 75 -50 77 -46 79 -42 82 -38 84 -34 87 -30 88 -26 90 -21 92 -17 93 -12 95 -7 96 -3 98 1 18 0 18 0 17 1 18 1 18 0 18 2 18 1 17 1 18 2 17 1 18 2 17 2 18 3 17 2 18 2 17 3 17 3 17 3 18 3 17 3 17 4 17 3 17 4 16 4 17 4 17 4 17 5 16 4 17 5 17 5 16 4 16zm1818 -2566l104 3 102 8 100 13 100 17 97 23 95 27 94 32 91 36 89 41 87 44 85 49 81 52 79 56 77 60 73 64 70 67 67 70 63 73 60 76 56 79 53 82 48 84 45 87 40 89 36 91 32 94 27 95 23 98 18 99 12 100 8 102 3 104 -3 103 -8 102 -12 101 -18 99 -23 97 -27 96 -32 93 -36 91 -40 90 -45 86 -48 85 -53 82 -56 79 -60 76 -63 73 -67 70 -70 67 -73 63 -77 60 -79 56 -81 53 -85 48 -87 45 -89 40 -91 36 -94 32 -95 27 -97 23 -100 18 -100 13 -102 7 -104 3 -103 -3 -102 -7 -101 -13 -99 -18 -97 -23 -96 -27 -93 -32 -91 -36 -90 -40 -86 -45 -85 -48 -82 -53 -79 -56 -76 -60 -73 -63 -70 -67 -67 -70 -63 -73 -60 -76 -56 -79 -53 -82 -48 -85 -45 -86 -40 -90 -37 -91 -31 -93 -28 -96 -22 -97 -18 -99 -13 -101 -7 -102 -3 -103 3 -104 7 -102 13 -100 18 -99 22 -98 28 -95 31 -94 37 -91 40 -89 45 -87 48 -84 53 -82 56 -79 60 -76 63 -73 67 -70 70 -67 73 -64 76 -60 79 -56 82 -52 85 -49 86 -44 90 -41 91 -36 93 -32 96 -27 97 -23 99 -17 101 -13 102 -8 103 -3zm-1247 2515l8 -30 8 -28 9 -29 10 -28 11 -28 12 -27 12 -27 13 -26 14 -26 15 -25 15 -25 16 -25 17 -23 17 -24 18 -22 19 -22 19 -22 20 -21 21 -20 21 -20 22 -19 23 -18 23 -18 24 -16 24 -17 25 -15 25 -15 26 -14 26 -13 27 -12 27 -11 28 -11 0 84 -23 10 -22 10 -22 11 -22 12 -22 13 -21 13 -21 14 -20 14 -20 15 -19 15 -19 16 -19 17 -18 17 -17 18 -18 18 -16 19 -16 19 -16 19 -15 20 -15 20 -14 21 -13 21 -13 22 -12 22 -12 22 -11 23 -10 22 -10 23 -9 24 -9 24 -8 23 -7 25 -6 1 -6 1 -5 1 -5 1 -6 1 -5 1 -5 1 -5 1 -5 0 -5 1 -5 1 -5 0 -6 1 -5 0 -6 0 -6 0zm141 -17l7 -21 8 -22 8 -21 8 -21 9 -21 10 -20 10 -20 10 -20 11 -19 12 -19 12 -19 12 -18 13 -18 13 -17 14 -18 14 -16 15 -17 15 -16 15 -15 16 -16 16 -14 17 -14 17 -14 18 -14 18 -12 18 -13 19 -12 19 -11 19 -11 20 -10 21 -10 20 -9 0 288 -7 4 -7 5 -6 5 -7 6 -6 5 -6 5 -6 6 -6 5 -6 6 -6 5 -5 6 -6 6 -5 6 -6 6 -5 6 -5 6 -5 7 -5 6 -5 7 -5 6 -4 7 -5 6 -5 7 -4 7 -5 7 -4 7 -4 7 -4 7 -5 7 -4 8 -4 7 -4 8 -6 -3 -7 -3 -6 -3 -6 -4 -6 -3 -6 -3 -7 -3 -6 -4 -6 -3 -6 -4 -6 -4 -7 -4 -6 -4 -6 -4 -6 -4 -6 -4 -6 4 -6 4 -6 4 -6 3 -6 4 -6 4 -5 3 -6 3 -6 4 -6 3 -6 3 -6 3 -5 3 -6 3 -6 3 -6 3 -6 3 -6 2 -6 3 -5 2 -6 3 -6 2 -6 2 -6 2 -6 3 -6 2 -5 2 -6 1 -6 2 -6 2 -6 2 -6 1zm-429 -76l11 -41 13 -40 14 -40 15 -39 16 -38 17 -38 19 -37 20 -36 21 -36 22 -34 23 -34 24 -33 25 -33 26 -31 27 -31 28 -30 29 -28 30 -28 31 -27 31 -26 33 -24 33 -24 34 -23 35 -21 36 -20 37 -20 37 -18 38 -16 39 -16 39 -14 40 -13 40 -12 0 259 -30 11 -30 12 -30 12 -29 14 -28 15 -28 15 -27 17 -27 17 -26 18 -25 19 -25 19 -24 21 -23 21 -23 22 -22 22 -21 24 -21 24 -19 24 -20 25 -18 26 -17 27 -17 27 -16 27 -15 28 -14 29 -14 29 -12 30 -12 30 -11 30 -10 31 -8 32 -8 32 -8 -1 -7 -2 -7 -1 -8 -1 -7 -2 -7 -2 -7 -1 -8 -2 -7 -2 -7 -2 -7 -2 -8 -3 -7 -2 -7 -2 -7 -3 -8 -3 -7 -3 -7 -3 -8 -3 -7 -3 -7 -3 -7 -3 -8 -4 -7 -3 -7 -4 -8 -4 -7 -3 -7 -4 -8 -4 -7 -5 -7 -4 -7 -4zm1700 80l-11 2 -10 2 -11 2 -11 1 -10 2 -11 1 -10 1 -11 1 -10 0 -11 0 -10 0 -11 0 -10 -1 -10 0 -11 -1 -10 -1 -11 -2 -10 -1 -11 -2 -10 -2 -10 -3 -11 -2 -10 -3 -11 -3 -11 -3 -10 -4 -11 -3 -10 -4 -11 -5 -11 -4 -11 -4 -11 -5 0 -1721 338 0 0 1762zm-402 -69l-5 -3 -5 -3 -5 -2 -4 -3 -5 -3 -5 -3 -5 -3 -5 -3 -7 4 -6 4 -6 4 -5 4 -6 4 -6 4 -6 4 -6 4 0 -1702 87 0 0 1693zm-146 27l-7 3 -6 3 -7 3 -7 3 -6 3 -7 2 -7 3 -6 2 -6 3 -7 2 -6 2 -7 2 -6 2 -6 2 -7 2 -6 2 -6 1 -6 2 -7 1 -6 2 -6 1 -7 1 -6 1 -7 1 -6 1 -6 1 -7 1 -7 0 -6 1 -7 0 -7 1 -7 0 0 -1774 208 0 0 1720zm998 -1721l-5 17 -6 17 -6 16 -7 16 -7 16 -7 15 -9 15 -8 15 -9 15 -9 14 -10 13 -10 14 -11 13 -11 12 -12 12 -11 12 -13 11 -13 11 -13 10 -13 10 -14 9 -14 9 -15 8 -15 7 -15 7 -16 7 -16 6 -17 5 -16 5 -18 4 -17 3 -18 3 0 -347 381 0zm60 0l86 0 -5 24 -7 24 -8 24 -8 23 -9 22 -10 22 -10 22 -11 21 -12 21 -13 20 -13 20 -15 19 -14 18 -16 18 -16 17 -17 17 -17 16 -18 15 -18 14 -20 14 -19 13 -21 12 -20 12 -22 10 -22 10 -22 9 -23 8 -23 7 -24 6 -24 5 -25 4 -25 3 0 -80 21 -3 20 -4 19 -4 20 -6 19 -6 19 -7 18 -8 18 -8 17 -9 18 -10 16 -10 17 -11 15 -12 16 -12 15 -13 14 -14 14 -14 14 -14 13 -15 12 -15 12 -16 12 -16 11 -17 10 -17 10 -18 9 -18 8 -18 8 -18 8 -19 7 -19 6 -19 5 -20zm161 0l-6 28 -7 28 -8 27 -9 26 -10 26 -11 26 -12 25 -13 25 -13 24 -15 23 -15 23 -16 22 -17 21 -17 20 -19 20 -19 19 -20 19 -20 17 -22 17 -22 15 -22 15 -24 14 -24 13 -24 12 -25 11 -26 10 -27 9 -26 8 -28 7 -28 6 -28 4 -29 3 0 539 58 -5 57 -6 56 -9 55 -12 54 -13 52 -16 51 -18 50 -21 49 -22 47 -24 46 -26 44 -29 43 -30 41 -32 39 -34 39 -35 36 -37 35 -39 33 -41 31 -42 29 -44 28 -45 26 -46 24 -48 22 -49 19 -51 18 -52 16 -53 14 -54 12 -55 9 -57 7 -57 -538 0z"/>
  <g style="clip-path:url(#id2)">
   <image x="7923" y="14932" width="4718" height="1175" xlink:href="โลโก้ แนวตั้ง_Images\โลโก้ แนวตั้ง_ImgID3.png"/>
  </g>
  <path class="fil5" d="M8546 15871c1,4 2,8 2,11 1,3 1,6 1,8 0,19 -8,36 -23,49 -15,13 -33,20 -53,20 -1,0 -3,0 -5,-1 -3,0 -7,-1 -12,-2 -19,-18 -38,-37 -56,-59 -12,-14 -23,-28 -33,-43 -11,-16 -21,-32 -31,-48 -16,13 -33,27 -50,42 -16,14 -34,28 -53,42 -37,27 -68,47 -91,59 -8,3 -15,4 -21,4 -11,0 -21,-2 -31,-6 -11,-4 -20,-9 -28,-15 -9,-7 -16,-14 -21,-23 -5,-9 -7,-18 -7,-28 0,-1 0,-3 0,-5 1,-3 1,-6 2,-11 4,-9 8,-23 13,-42 5,-20 9,-44 14,-73 11,-59 17,-110 17,-154 0,-22 -2,-40 -6,-53 -3,-14 -10,-20 -19,-20 -5,0 -9,3 -12,10 -2,7 -4,15 -4,25 0,12 2,24 4,35 3,12 7,21 12,25 -14,29 -38,43 -71,43 -36,0 -58,-16 -66,-47 0,-46 12,-90 35,-133 29,-50 67,-75 113,-75 49,0 86,26 108,77 18,37 27,91 27,162 0,19 -1,39 -3,60 -2,22 -4,41 -6,56 23,-17 40,-32 53,-43 13,-11 24,-23 34,-36 -11,-34 -16,-68 -16,-103 0,-45 12,-87 36,-127 29,-45 66,-68 110,-68 31,0 57,13 76,38 19,25 29,54 29,89 0,32 -7,64 -22,95 -14,31 -33,62 -57,92 8,16 16,32 26,48 9,16 20,34 32,52 7,11 16,23 25,35 8,12 18,25 28,38zm-142 -350c1,-3 2,-8 2,-16 0,-7 -1,-11 -3,-13 -3,-1 -6,1 -11,7 -4,6 -7,12 -9,19 -1,3 -1,11 -1,25 0,13 0,20 1,21 10,-12 17,-26 21,-43zm501 -356c-51,8 -98,16 -141,26 -43,9 -84,19 -124,30 -32,10 -70,23 -114,38 -44,16 -95,35 -154,58 -7,4 -18,6 -32,6 -17,0 -31,-5 -42,-15 -12,-10 -17,-21 -17,-34 4,-11 7,-24 10,-38 4,-15 5,-27 5,-37 0,-13 -2,-21 -5,-25 -2,-3 -5,-4 -8,-3 -3,1 -7,3 -10,5 -3,2 -6,5 -8,9 -2,3 -2,6 0,9 5,5 11,10 19,14 -11,9 -23,17 -37,23 -14,6 -27,9 -38,9 -39,0 -59,-19 -59,-56 0,-21 20,-43 61,-68 41,-25 79,-38 113,-38 33,0 56,10 69,29 12,20 18,42 18,67 0,12 0,18 -1,20 52,-17 94,-32 127,-42 33,-11 59,-19 77,-24 82,-21 171,-31 265,-31 14,0 25,4 33,11 7,8 11,16 11,26 0,14 -6,24 -18,31zm33 509c0,53 -4,102 -14,148 -4,25 -9,48 -14,67 -4,19 -9,34 -12,45 -13,25 -35,37 -68,37 -32,0 -54,-12 -66,-36 4,-14 8,-32 11,-51 4,-20 8,-42 12,-67 3,-25 6,-49 8,-72 2,-22 3,-44 3,-63 0,-59 -9,-101 -26,-127 -18,-26 -41,-38 -70,-38 -24,0 -36,15 -36,45 0,6 0,15 2,28 1,12 4,27 8,46 1,10 3,18 4,25 1,7 1,13 1,18 -11,20 -31,29 -60,29 -17,1 -31,-1 -41,-7 -10,-6 -18,-14 -25,-24 -6,-9 -10,-21 -11,-33 -2,-13 -3,-26 -2,-39 0,-57 12,-104 37,-141 29,-43 69,-64 122,-64 78,0 138,29 181,86 38,48 56,111 56,188zm523 -1c0,79 -20,143 -59,195 -42,56 -97,84 -164,84 -63,0 -130,-67 -201,-199 -58,-112 -90,-198 -96,-257 -4,-24 3,-44 20,-60 18,-15 40,-22 66,-22 17,0 32,3 45,10 6,44 15,86 26,127 11,40 23,81 38,122 38,100 75,150 111,150 10,0 18,-4 26,-11 8,-8 15,-19 20,-32 5,-13 9,-29 12,-46 3,-17 4,-35 4,-54 0,-54 -4,-97 -13,-131 -9,-33 -21,-50 -37,-50 -11,0 -16,15 -16,46 0,5 0,10 1,16 0,6 1,12 2,19 -13,26 -36,38 -69,38 -37,0 -59,-16 -64,-50 -6,-38 6,-77 35,-116 31,-45 69,-68 112,-68 53,0 99,25 138,75 42,55 63,127 63,214zm657 254c-5,13 -15,24 -28,32 -13,8 -27,12 -43,12 -13,0 -24,-2 -33,-7 -9,-4 -16,-12 -22,-24 10,-45 15,-93 15,-142 0,-41 -3,-79 -10,-115 -7,-35 -18,-67 -33,-94 3,11 4,21 4,29 0,2 0,5 -1,9 0,4 -1,9 -2,14l-10 0c-6,1 -12,3 -18,8 -31,49 -58,91 -83,128 -24,37 -47,68 -67,93 -21,25 -40,44 -58,57 -18,12 -35,19 -52,19 -50,0 -90,-16 -119,-49 -32,-33 -48,-84 -48,-153 0,-74 24,-145 73,-214 62,-88 145,-133 249,-133 91,0 166,35 225,104 59,69 88,156 88,259 0,58 -9,113 -27,167zm-199 -391c-21,-19 -48,-28 -82,-28 -59,0 -106,27 -141,82 -29,46 -44,93 -44,143 0,26 1,48 4,65 2,18 6,27 13,27 6,0 36,-49 90,-148 55,-99 101,-148 137,-148 12,1 19,4 23,7zm895 212c0,47 -19,89 -56,125 -35,37 -74,55 -117,55 -21,0 -40,-12 -55,-35 -16,-24 -27,-56 -33,-98l-20 14c-5,4 -16,12 -34,26 -18,14 -42,34 -73,59 -13,11 -24,20 -31,26 -8,6 -15,11 -21,14 -5,3 -11,5 -15,6 -5,1 -10,1 -16,1 -19,0 -38,-7 -56,-20 -18,-14 -27,-30 -27,-49 0,-1 1,-3 1,-5 1,-3 1,-6 2,-11 5,-13 11,-30 18,-50 7,-21 14,-46 22,-74 19,-72 29,-126 29,-162 0,-28 -7,-41 -20,-41 -10,0 -19,9 -26,28 -7,19 -10,38 -10,56 0,1 1,5 3,13 -13,24 -35,37 -66,37 -34,0 -56,-14 -65,-42 0,-35 16,-77 49,-126 39,-55 82,-83 127,-83 47,0 82,21 102,63 18,34 27,81 27,140 0,14 0,26 -1,35 0,9 -1,19 -1,27 -1,9 -2,19 -4,28 -2,10 -4,22 -7,34 15,-10 32,-22 51,-34 20,-11 38,-22 56,-31 0,-53 1,-107 4,-163 2,-29 3,-51 4,-68 1,-17 2,-28 3,-35 21,-18 45,-27 72,-27 18,0 33,5 46,16 12,10 18,23 18,40 -1,8 -3,19 -4,33 -2,15 -3,30 -5,47 -1,18 -2,36 -3,56 -1,19 -2,38 -2,56l14 0c43,0 73,10 92,31 19,20 28,50 28,88zm-122 8c0,-12 -5,-17 -16,-14 -1,3 -1,9 -1,16 0,18 2,27 5,27 8,0 12,-10 12,-29zm504 44c0,25 -19,59 -56,101 -41,47 -81,70 -120,70 -45,0 -76,-14 -91,-41 -10,-20 -15,-50 -15,-90 1,-21 2,-43 2,-66 1,-23 3,-47 5,-73 3,-51 8,-137 12,-257 6,-120 9,-195 9,-222 -23,10 -52,15 -87,15 -44,0 -98,-7 -161,-21 -136,-32 -218,-49 -245,-49l-110 5c-47,-8 -70,-30 -70,-67 0,-10 3,-23 8,-36 11,-7 28,-13 49,-19 21,-5 44,-8 69,-8 55,0 115,9 181,27 144,39 232,59 266,59 27,0 49,-14 66,-42 12,-21 21,-46 25,-73 10,-19 32,-28 66,-28 17,0 32,2 45,8 12,6 22,16 28,28 0,27 0,62 -1,104 -1,43 -2,90 -3,143 -2,52 -4,107 -5,166 -2,59 -4,119 -6,179 -3,122 -4,192 -4,209 4,-4 10,-12 17,-24 7,-13 11,-23 12,-32 9,-12 23,-18 44,-18 18,0 33,5 47,14 13,10 21,22 23,38zm572 107c-4,16 -13,29 -29,39 -15,11 -32,16 -50,16 -27,0 -45,-10 -55,-31 4,-41 7,-78 10,-111 2,-33 3,-67 3,-101 0,-65 -6,-113 -18,-145 -16,-41 -41,-62 -75,-62 -49,0 -91,82 -126,245 -10,47 -17,85 -22,113 -5,28 -9,47 -10,58 -16,15 -39,22 -69,22 -22,0 -40,-5 -55,-14 -15,-9 -23,-24 -23,-43 7,-61 12,-111 15,-149 3,-39 5,-73 5,-103 0,-12 0,-23 -1,-34 0,-10 -2,-24 -5,-42 -2,-18 -11,-29 -24,-33 -14,-3 -26,-4 -36,-3 9,-35 25,-62 51,-82 25,-19 53,-29 83,-29 21,0 38,7 49,21 12,13 20,32 25,56 18,-31 37,-55 59,-73 30,-22 61,-34 93,-34 82,0 142,37 178,110 28,56 42,133 42,231 0,35 -1,64 -4,86 -1,10 -2,24 -4,39 -2,16 -4,34 -7,53zm584 -476c-16,38 -31,111 -46,220 -14,109 -21,202 -21,279 -6,11 -17,21 -34,29 -17,8 -34,12 -53,12 -11,0 -21,-2 -33,-5 -11,-3 -21,-10 -29,-22 -8,-45 -87,-113 -235,-203 -64,-40 -97,-82 -97,-127 0,-49 28,-95 82,-137 49,-38 93,-58 132,-58 26,0 46,15 60,44 14,29 21,63 21,101 0,20 -8,35 -26,47 -17,12 -36,18 -58,18 -20,0 -34,-5 -42,-15 0,-3 1,-10 3,-22 2,-12 3,-21 3,-27 -6,5 -11,11 -16,19 -5,7 -7,14 -7,20 0,21 35,50 105,87 24,11 44,22 60,31 15,8 28,16 36,23 0,-62 11,-133 32,-215 23,-79 46,-127 69,-146 7,-6 17,-9 30,-9 17,0 33,5 47,16 15,10 20,24 17,40z"/>
  <g style="clip-path:url(#id3)">
   <image x="7332" y="16332" width="5897" height="1175" xlink:href="โลโก้ แนวตั้ง_Images\โลโก้ แนวตั้ง_ImgID4.png"/>
  </g>
  <path class="fil6" d="M13075 17073c0,79 -19,144 -59,195 -42,56 -97,84 -164,84 -63,0 -130,-66 -201,-199 -58,-112 -90,-198 -95,-257 -4,-24 3,-44 20,-59 17,-16 39,-23 65,-23 17,0 32,3 45,10 7,44 15,87 26,127 11,40 24,81 39,122 37,101 74,151 111,151 9,0 18,-4 26,-12 8,-8 14,-19 19,-32 6,-13 10,-28 12,-45 3,-18 5,-36 5,-54 0,-54 -5,-98 -14,-132 -9,-33 -21,-50 -37,-50 -10,0 -15,16 -15,46 0,5 0,10 0,16 1,6 1,13 2,19 -13,26 -36,39 -68,39 -38,0 -59,-17 -65,-50 -6,-39 6,-78 35,-117 32,-45 69,-68 112,-68 54,0 100,25 138,76 42,55 63,126 63,213zm-515 -22c0,79 -25,149 -75,210 -57,68 -134,103 -232,103 -30,0 -59,-5 -86,-15 -27,-10 -50,-24 -69,-42 -19,-18 -34,-40 -45,-66 -10,-25 -16,-54 -16,-85 0,-53 19,-101 56,-143 38,-44 79,-66 124,-66 40,0 73,9 97,29 24,20 40,46 48,80 0,17 -9,35 -26,51 -16,17 -36,25 -57,25 -7,0 -17,-2 -31,-7 -2,-9 -4,-17 -6,-24 -2,-7 -4,-12 -5,-17 -8,-20 -19,-30 -33,-30 -11,0 -20,9 -26,26 -7,17 -10,37 -10,58 0,10 1,22 3,36 3,13 12,28 29,44 15,16 36,23 62,23 41,0 77,-16 108,-50 31,-33 46,-76 46,-128 0,-42 -16,-78 -49,-106 -32,-29 -76,-43 -130,-43 -66,0 -122,16 -169,47 -46,31 -69,69 -69,114 0,3 0,6 1,10 0,4 1,8 2,13 4,21 -1,37 -14,50 -13,12 -32,18 -56,18 -15,0 -28,-5 -37,-15 -10,-11 -15,-25 -15,-44 0,-77 38,-149 114,-214 76,-65 163,-98 259,-98 96,0 173,28 231,84 50,49 76,106 76,172zm-686 -567l-1 206c-6,15 -17,27 -35,38 -17,10 -36,15 -55,15 -14,0 -25,-2 -31,-6 -19,-18 -42,-38 -71,-58 -29,-20 -64,-42 -106,-64 -80,-45 -126,-64 -138,-56 5,8 9,16 14,25 4,9 8,17 13,25 23,28 45,49 65,62 2,16 -2,30 -13,43 -11,12 -26,19 -45,19 -5,0 -15,-3 -31,-8 -50,-29 -92,-69 -126,-120 -37,-52 -55,-96 -55,-133 0,-13 3,-23 8,-31 11,-13 33,-19 63,-19 32,0 72,7 121,22 48,15 96,33 144,56l0 -21c0,-10 5,-17 15,-23 10,-6 23,-9 38,-9 14,0 27,2 39,8 12,5 19,12 21,21l0 92 41 34 6 -117c13,-25 34,-38 63,-38 31,0 50,12 56,37zm-435 673c-6,-2 -14,-2 -26,0 -11,2 -17,6 -17,12 0,12 9,26 27,41 8,-19 13,-37 16,-53zm437 -312c-5,25 -8,98 -9,217 -1,59 -2,111 -2,154 0,42 -1,77 -1,105 -4,13 -15,23 -31,31 -16,8 -32,12 -49,12 -11,0 -22,-2 -32,-6 -10,-4 -18,-10 -24,-19 -13,-26 -34,-52 -63,-80 -29,-27 -61,-50 -96,-68 -15,47 -35,87 -60,119 -25,32 -51,50 -76,54 -27,0 -59,-19 -97,-58 -44,-44 -66,-89 -66,-134 0,-44 16,-76 47,-96 31,-19 72,-29 123,-29l20 1c2,-10 3,-21 4,-34 1,-12 1,-27 1,-42 0,-15 -1,-27 -2,-37 -2,-9 -6,-14 -12,-14 -4,0 -10,3 -15,8 -6,5 -11,11 -16,18 -6,6 -10,14 -13,22 -3,8 -5,14 -5,20 0,6 1,11 4,14 -6,12 -16,22 -28,28 -12,7 -26,10 -41,10 -39,0 -63,-14 -73,-41 0,-32 21,-71 62,-117 46,-50 93,-75 142,-75 42,0 74,19 96,58 21,39 32,88 32,148l0 24 0 19c-1,5 -2,9 -2,12 -1,3 -1,5 -1,7 25,9 51,20 76,34 25,14 47,28 65,41 0,-10 -1,-28 -1,-52 -1,-24 -1,-49 -2,-74 -1,-26 -2,-50 -2,-73 -1,-22 -1,-37 -1,-45 0,-38 2,-63 7,-75 5,-9 15,-18 31,-26 18,-7 34,-11 48,-11 18,0 34,4 46,12 12,9 17,21 16,38zm-612 340c0,26 -18,60 -56,102 -41,46 -81,69 -119,69 -45,0 -76,-13 -93,-41 -12,-19 -18,-47 -18,-85 2,-33 4,-62 5,-87 2,-25 4,-47 5,-65 3,-56 6,-104 7,-144 2,-40 2,-72 2,-97 2,-16 9,-29 21,-36 12,-8 26,-12 43,-12 16,0 30,3 42,9 12,7 20,15 24,26 0,54 -2,113 -4,176 -3,63 -6,134 -9,213 8,-3 16,-12 24,-29 7,-15 11,-26 13,-33 8,-11 23,-17 43,-17 18,0 34,4 47,14 14,9 22,22 23,37zm-476 -29c0,-12 -5,-16 -15,-13 -1,3 -2,8 -2,16 0,18 2,26 6,26 7,0 11,-9 11,-29zm122 -7c0,47 -18,88 -56,125 -34,36 -73,54 -116,54 -22,0 -40,-11 -56,-35 -15,-24 -26,-56 -33,-97l-20 13c-4,4 -16,13 -33,27 -18,13 -42,33 -73,58 -14,11 -24,20 -32,26 -8,7 -15,11 -20,14 -6,3 -11,5 -16,6 -5,1 -10,2 -15,2 -20,0 -39,-7 -56,-21 -18,-14 -27,-30 -27,-49 0,-1 0,-2 1,-5 0,-2 1,-6 2,-11 4,-13 10,-29 17,-50 7,-21 14,-45 22,-74 20,-71 29,-125 29,-162 0,-27 -6,-41 -19,-41 -11,0 -19,9 -26,29 -7,19 -11,37 -11,55 0,1 1,5 3,13 -12,25 -34,37 -66,37 -34,0 -55,-14 -65,-41 0,-36 17,-78 50,-127 39,-55 81,-83 126,-83 48,0 82,22 103,64 17,33 26,80 26,140 0,14 0,25 0,34 -1,10 -1,19 -2,28 0,9 -1,18 -3,28 -2,10 -5,21 -7,34 15,-11 32,-22 51,-34 19,-12 38,-22 55,-31 0,-53 2,-108 5,-164 2,-28 3,-51 4,-68 1,-16 2,-28 3,-35 20,-18 44,-27 71,-27 18,0 33,6 46,16 13,10 19,24 19,40 -2,8 -4,19 -5,34 -1,14 -3,30 -4,47 -2,17 -3,35 -4,55 -1,20 -1,38 -1,56l14 0c42,0 73,10 91,31 19,21 28,50 28,89zm-895 -213c-20,-18 -47,-28 -81,-28 -59,0 -106,28 -142,83 -29,45 -44,93 -44,143 0,25 2,47 4,65 2,17 7,26 13,26 7,0 37,-49 90,-147 56,-100 101,-149 138,-149 11,2 19,4 22,7zm200 391c-6,14 -15,24 -28,32 -13,8 -28,12 -44,12 -13,0 -24,-2 -33,-7 -9,-4 -16,-12 -22,-24 11,-45 16,-92 16,-141 0,-42 -4,-80 -11,-115 -7,-36 -18,-67 -33,-95 3,11 5,21 5,30 0,2 -1,5 -1,9 -1,4 -1,8 -2,13l-10 0c-7,1 -13,4 -18,9 -31,48 -59,90 -83,127 -25,37 -47,68 -68,93 -20,25 -39,44 -57,57 -18,13 -35,19 -52,19 -51,0 -91,-16 -120,-49 -32,-33 -47,-84 -47,-153 0,-74 24,-145 73,-214 61,-88 144,-132 248,-132 91,0 166,34 225,103 59,70 89,156 89,259 0,58 -9,114 -27,167zm-2098 -56c1,5 2,9 2,12 1,3 1,5 1,7 0,20 -8,36 -23,49 -15,14 -33,20 -53,20 -1,0 -3,0 -5,0 -3,-1 -7,-2 -12,-3 -19,-17 -38,-37 -56,-59 -12,-13 -23,-28 -33,-43 -11,-15 -21,-31 -31,-48 -16,14 -33,28 -50,42 -16,14 -34,28 -53,42 -37,28 -68,47 -91,59 -8,3 -15,4 -21,4 -11,0 -21,-2 -31,-5 -11,-4 -20,-10 -28,-16 -9,-6 -16,-14 -21,-23 -5,-9 -7,-18 -7,-28 0,-1 0,-3 0,-5 1,-2 1,-6 2,-11 4,-9 8,-23 13,-42 5,-19 9,-44 14,-73 11,-59 17,-110 17,-153 0,-23 -2,-41 -6,-54 -3,-13 -10,-20 -19,-20 -5,0 -9,3 -12,10 -2,7 -4,16 -4,25 0,12 2,24 4,36 3,12 7,20 12,25 -14,28 -38,43 -71,43 -36,0 -58,-16 -66,-48 0,-46 12,-90 35,-132 29,-50 67,-76 113,-76 49,0 86,26 108,77 18,37 27,92 27,162 0,19 -1,39 -3,61 -2,21 -4,40 -6,56 23,-18 40,-32 53,-44 13,-11 24,-23 34,-36 -11,-33 -16,-68 -16,-103 0,-44 12,-87 36,-127 29,-45 66,-68 110,-68 31,0 57,13 76,38 19,25 29,55 29,89 0,33 -7,64 -22,95 -14,31 -33,62 -57,92 8,16 16,32 26,48 9,17 20,34 32,53 7,10 16,22 25,34 8,13 18,25 28,38zm-142 -350c1,-2 2,-8 2,-16 0,-7 -1,-11 -3,-13 -3,-1 -6,1 -11,7 -4,6 -7,13 -9,20 -1,2 -1,11 -1,25 0,12 0,19 1,20 10,-12 17,-26 21,-43zm613 167c0,88 -21,158 -63,212 -38,49 -83,73 -135,73 -25,0 -46,-6 -63,-18 -17,-12 -27,-27 -31,-46 -4,-18 0,-35 11,-51 11,-15 26,-24 44,-28 6,4 15,6 25,6 20,0 38,-14 51,-42 14,-27 20,-60 20,-97 0,-42 -9,-79 -29,-111 -22,-35 -54,-53 -94,-53 -26,0 -45,13 -56,39 -12,25 -17,57 -17,94l0 25c0,8 0,13 1,16 -11,20 -31,30 -60,30 -19,0 -36,-5 -51,-14 -15,-10 -23,-22 -25,-36 -1,-8 -2,-15 -2,-20 -1,-6 -1,-10 -1,-14 0,-56 20,-109 59,-160 40,-51 88,-76 143,-76 86,0 154,28 204,85 46,51 69,113 69,186zm967 -106c0,55 -15,123 -44,205 -6,17 -14,37 -24,63 -10,25 -23,54 -38,89 -5,10 -14,17 -26,23 -13,6 -26,9 -40,9 -34,0 -56,-9 -66,-26 -10,-49 -24,-100 -42,-155 -28,-79 -58,-132 -90,-159 -3,-2 -8,-4 -17,-5 -8,-1 -17,-1 -25,-1l-8 0c3,-15 10,-29 19,-41 10,-12 20,-23 32,-32 13,-8 26,-15 40,-20 14,-5 28,-8 42,-8 11,0 20,2 27,6 23,26 44,58 63,98 12,26 22,55 29,87 2,-6 4,-14 7,-23 2,-10 5,-21 7,-33 6,-27 9,-44 9,-52 0,-30 -11,-54 -33,-70 -22,-16 -53,-24 -94,-24 -51,0 -98,13 -141,41 -15,11 -30,22 -44,32 -14,11 -28,22 -42,33 -12,10 -26,15 -41,15 -9,0 -19,-3 -28,-7 -9,-5 -18,-10 -25,-17 -8,-7 -14,-15 -19,-24 -4,-10 -7,-19 -7,-28 0,-1 1,-2 1,-5 1,-2 1,-6 2,-11 38,-36 78,-66 122,-88 74,-38 148,-56 220,-56 85,0 152,16 201,48 48,31 73,77 73,136zm-564 218c0,26 -19,60 -56,102 -41,46 -81,69 -119,69 -45,0 -75,-14 -90,-41 -11,-20 -16,-49 -16,-89 2,-24 4,-50 5,-77 2,-27 3,-56 5,-86 2,-32 4,-71 8,-117 3,-47 7,-102 10,-165 4,-65 7,-115 9,-152 2,-36 3,-60 3,-70 0,-35 -3,-57 -7,-68 -5,-10 -15,-15 -31,-15 -33,0 -71,19 -114,56 -43,36 -65,67 -65,91 0,9 6,14 17,14 15,0 35,-8 59,-22 24,-17 42,-33 52,-49 7,-4 15,-6 25,-6 15,0 28,5 38,15 11,10 14,22 10,38 -16,30 -44,58 -84,84 -49,34 -102,50 -160,50 -37,0 -62,-7 -77,-23 -14,-15 -22,-35 -22,-61 0,-7 1,-15 2,-23 -22,-2 -45,-3 -69,-3 -67,0 -153,9 -260,26 -110,18 -178,27 -205,27 -40,0 -72,-8 -96,-22 -25,-15 -38,-38 -38,-70 0,-58 11,-103 31,-137 12,-13 30,-19 52,-19 23,0 44,6 66,19 21,13 33,28 37,44 -7,1 -13,2 -20,3 -6,1 -12,4 -15,9 -8,11 -12,21 -12,31 0,7 4,12 12,13 7,2 17,3 29,3 19,0 43,-1 73,-3 30,-1 66,-4 108,-8 43,-4 79,-7 111,-9 31,-2 58,-3 79,-3 37,0 69,1 98,4 17,2 36,5 54,9 17,-27 41,-56 70,-85 76,-80 156,-120 242,-120 42,0 75,13 100,40 25,27 37,69 37,128 0,22 0,51 -2,88 -1,37 -3,78 -5,123 -1,45 -4,93 -7,144 -2,50 -5,100 -8,149 -2,52 -4,93 -5,124 -1,31 -2,51 -2,62 5,-4 10,-12 17,-24 7,-12 11,-23 12,-32 9,-12 23,-17 44,-17 18,0 33,4 47,14 14,9 21,21 23,37z"/>
 </g>
</svg>
